<svg xmlns="http://www.w3.org/2000/svg" viewBox="0 0 963.29 119.15"><defs><style>.cls-1{fill:#fffcf1;}</style></defs><title>Risorsa 1</title><g id="Livello_2" data-name="Livello 2"><g id="Livello_1-2" data-name="Livello 1"><path class="cls-1" d="M44.39,53.75A18.12,18.12,0,0,1,51.73,64a22.4,22.4,0,0,1,.86,6.64,32.65,32.65,0,0,1-5.47,17.52,33.39,33.39,0,0,1-11.35,10.8,27,27,0,0,1-14.94,3.65q-10.08-.68-15.45-6.71A21.57,21.57,0,0,1,0,81Q0,66.68,12,57.15a1,1,0,0,1,1.37.17l.68.85a1.16,1.16,0,0,1-.17,1.36Q2.89,68,2.9,81.13A18.61,18.61,0,0,0,7.51,94q4.61,5.19,13.49,5.7,14.34.69,23.56-13.26a28.32,28.32,0,0,0,5.12-16A21.53,21.53,0,0,0,49,64.8Q46.44,56,36.2,53.07a1.21,1.21,0,0,1-.69-1.19l.34-1c0-.68.35-.91,1-.68q7.34,1,11.61-4.6a10.67,10.67,0,0,0,2.56-9,8.31,8.31,0,0,0-3.24-5.27,9.85,9.85,0,0,0-6-1.87A11,11,0,0,0,34.75,32a13.36,13.36,0,0,0-4.36,7.65c0,.68-.34.91-1,.68l-1-.17c-.68-.22-.91-.62-.68-1.19a16.34,16.34,0,0,1,5.55-9.27A13.9,13.9,0,0,1,42,26.53a12.75,12.75,0,0,1,7.86,2.56,10.3,10.3,0,0,1,4.09,7,13.82,13.82,0,0,1-3.07,11.22,14.12,14.12,0,0,1-6.15,4.77.76.76,0,0,0-.68.76A1.26,1.26,0,0,0,44.39,53.75Z"/><path class="cls-1" d="M75.63,52.39a22.28,22.28,0,0,1,9.05-2A16.84,16.84,0,0,1,97.4,55.62q5,5.28,4.7,13.95a32.52,32.52,0,0,1-11.1,24,36.06,36.06,0,0,1-24.93,9.52,39.09,39.09,0,0,1-10.92-1.53,1,1,0,0,1-.69-1.36l.34-.85c.12-.45.52-.68,1.2-.68a35.66,35.66,0,0,0,10.24,1.53A32.79,32.79,0,0,0,89,91.42a30.78,30.78,0,0,0,10.33-22c.22-5.11-1.14-9.07-4.1-11.91a15.21,15.21,0,0,0-10.93-4.25A17.93,17.93,0,0,0,72.9,57.15a.94.94,0,0,1-1.19.17l-1-.85q-.51-.16-.51-1l7.17-27.22a6.38,6.38,0,0,1,.51-.68l1-.68h.68a56,56,0,0,0,10.25,1A42.6,42.6,0,0,0,99.88,26.7c.57-.22,1,0,1.2.68l.17.85c.22.57,0,1-.69,1.2a49.34,49.34,0,0,1-10.75,1.36,61.87,61.87,0,0,1-9-.85c-.57,0-.92.22-1,.68L74.27,51.2a.86.86,0,0,0,.34,1A1.12,1.12,0,0,0,75.63,52.39Z"/><path class="cls-1" d="M276.93,1.36c.35.11.4.4.17.85L246,118.21a1.09,1.09,0,0,1-1,.68h-1c-.8,0-1.08-.39-.85-1.19L273.69,4.25a.85.85,0,0,0-.26-.93.86.86,0,0,0-.94-.26A23.93,23.93,0,0,0,261.4,7.48a50.91,50.91,0,0,0-8.88,7.83,77.87,77.87,0,0,0-8.45,12.75Q239.2,36.75,237,41.5t-7.17,15.82c-.23.45-.06.68.51.68A93.42,93.42,0,0,1,243,56.47a16.94,16.94,0,0,1,10.92,3.4c.57.46.63.91.17,1.36l-.68.68c-.34.57-.74.63-1.19.17a15.17,15.17,0,0,0-9.39-2.72q-2.56,0-14.35,1.87a1.4,1.4,0,0,0-.51.17q-4.6,10.38-7.94,17a164.39,164.39,0,0,1-8.62,14.88A72.29,72.29,0,0,1,201,106.39a45.17,45.17,0,0,1-12,8.17,34.29,34.29,0,0,1-14.85,3.31,48.59,48.59,0,0,1-6.83-.51A37,37,0,0,1,144.87,105a32.33,32.33,0,0,1-8.28-23.82q.67-16.15,11.69-27t26.89-10.21q14.18.51,24.08,12.42c.45.45.4.91-.17,1.36l-.69.51a.85.85,0,0,1-1.36,0q-8.88-10.87-22-11.4a31.71,31.71,0,0,0-24.75,9.44,35.5,35.5,0,0,0-10.76,24.92A29.62,29.62,0,0,0,147,103.07a34,34,0,0,0,20.83,11.4,40.65,40.65,0,0,0,6.32.51,31.66,31.66,0,0,0,13.66-3.06A42.79,42.79,0,0,0,199,104.43a66.07,66.07,0,0,0,9.65-12,142.37,142.37,0,0,0,8.19-14q3.25-6.47,7.52-16c.22-.45.05-.68-.52-.68q-8.88.85-14.34-3.23a.92.92,0,0,1-.17-1.36l.51-.68c.46-.57.91-.62,1.37-.17A15.32,15.32,0,0,0,220.42,59c1.14,0,3-.11,5.46-.34l.34-.34q12.47-28.23,19.3-38.44Q258.84.18,275.4,0c.45,0,.74.11.85.34Z"/><path class="cls-1" d="M325.93,26.87c.8,0,1.08.4.86,1.19l-19.64,73c-.23.57-.57.85-1,.85h-1.37c-.45,0-.8-.28-1-.85L290.42,34.87a.54.54,0,0,0-.51-.34.3.3,0,0,0-.34.34L271.64,101a.75.75,0,0,1-.85.85h-1c-.68,0-1-.45-1-1.36l19.8-73c0-.45.29-.68.86-.68h1.53a1.1,1.1,0,0,1,1,.68l13.31,66a.4.4,0,0,0,.35.42.41.41,0,0,0,.51-.25l17.76-66.17a.91.91,0,0,1,1-.68Z"/><path class="cls-1" d="M380.74,26.87c.8,0,1.08.4.85,1.19L362,101c-.23.57-.57.85-1,.85h-1.37c-.46,0-.8-.28-1-.85L345.23,34.87a.56.56,0,0,0-.52-.34.3.3,0,0,0-.34.34L326.45,101a.76.76,0,0,1-.86.85h-1c-.69,0-1-.45-1-1.36l19.81-73c0-.45.28-.68.85-.68h1.54a1.1,1.1,0,0,1,1,.68l13.32,66a.39.39,0,0,0,.34.42.42.42,0,0,0,.52-.25l17.75-66.17a.92.92,0,0,1,1-.68Z"/><path class="cls-1" d="M400,26.87c.79,0,1.08.4.85,1.19l-19.64,73a.75.75,0,0,1-.85.85h-1c-.8,0-1.09-.45-.86-1.36l19.64-73c0-.45.28-.68.85-.68Z"/><path class="cls-1" d="M471.57,26.87a14.23,14.23,0,0,1,10.5,4,13.46,13.46,0,0,1,4,10,15.88,15.88,0,0,1-.68,4.76L475,83.85a23.61,23.61,0,0,1-8.63,12.68,22.54,22.54,0,0,1-14.25,5.35H433c-.91,0-1.25-.45-1-1.36l19.63-73a.93.93,0,0,1,1-.68ZM482.5,44.73q1.71-6.12-1.37-10.54t-9.56-4.42H454.84a.92.92,0,0,0-1,.68L435.72,97.63c-.23.91.11,1.36,1,1.36h15.37a19.61,19.61,0,0,0,12.55-4.76,21.31,21.31,0,0,0,7.59-11.06Z"/><path class="cls-1" d="M507.43,26.87c.79,0,1.08.4.85,1.19l-19.63,73a.76.76,0,0,1-.86.85h-1c-.8,0-1.09-.45-.86-1.36l19.64-73c0-.45.28-.68.85-.68Z"/><path class="cls-1" d="M597.23,1.53a40,40,0,0,1,22.28,12.59,32.74,32.74,0,0,1,8.63,22.45,42.89,42.89,0,0,1-1.2,8.84q-2.91,11.4-10.58,17A30.44,30.44,0,0,1,597.92,68,47.77,47.77,0,0,1,584.43,66c-.68-.22-.91-.62-.68-1.19l.34-1c.11-.45.51-.68,1.19-.68a44.17,44.17,0,0,0,13,2,27,27,0,0,0,16.39-5q6.83-5,9.39-15.4a36.45,36.45,0,0,0,1-8.16A30.07,30.07,0,0,0,617.21,16,37.91,37.91,0,0,0,596.72,4.25a52.69,52.69,0,0,0-12.29-1.36q-20.32,0-33,14T538.67,48.65a38.11,38.11,0,0,0,6,20.83q6,9.43,17.75,14.37a.82.82,0,0,1,.52,1.19l-.35.86c-.23.68-.62.85-1.19.51Q548.57,81.3,542.17,71.1a41.42,41.42,0,0,1-6.4-22.45q0-19,13.49-33.85T584.09,0A60,60,0,0,1,597.23,1.53Zm12.64,109,.68.51c.57.45.62.91.17,1.36a18.51,18.51,0,0,1-14.34,6.46,28.36,28.36,0,0,1-7.34-1.1,54,54,0,0,1-6.15-2c-1.36-.57-3.93-1.73-7.68-3.49s-5.81-2.74-6.15-3-.74-.11-1.19.34q-6,10.38-16.74,9.35a9.07,9.07,0,0,1-6.23-2.89,8.42,8.42,0,0,1-2.3-5.78,7.85,7.85,0,0,1,2.81-6q2.82-2.55,7.94-2.55,4.95,0,12.64,3.07a1,1,0,0,0,1.36-.69,15.66,15.66,0,0,0,1.2-3.74L588.7,27.38a.86.86,0,0,0-.35-1,.87.87,0,0,0-1,0,19.08,19.08,0,0,1-5.29,1.7c-.57.23-1,0-1.2-.68l-.17-1c0-.68.28-1,.86-1a12.34,12.34,0,0,0,5.72-2.46,17.76,17.76,0,0,0,4-5.36c.22-.45.62-.57,1.19-.34l1,.34c.68.23.91.62.68,1.19L571.45,101.2c-.68,2-1.19,3.52-1.53,4.43a.81.81,0,0,0,.51,1.19q1.19.51,4.61,2.21c2.27,1.13,4.07,2,5.38,2.55s3,1.25,5,2a31.65,31.65,0,0,0,5.63,1.7,27.45,27.45,0,0,0,5.21.51,15.85,15.85,0,0,0,12.29-5.27A.86.86,0,0,1,609.87,110.56Zm-44.74-1.7a1.16,1.16,0,0,0-.51-1.53,28.44,28.44,0,0,0-11.1-2.56,9.08,9.08,0,0,0-6,1.71,5.12,5.12,0,0,0-2,4.08,5.36,5.36,0,0,0,1.54,3.83,6.38,6.38,0,0,0,4.44,1.78Q560,116.86,565.13,108.86Z"/><path class="cls-1" d="M664.5,26.87q6.82,0,10.93,4.17a14.33,14.33,0,0,1,4.1,10.46,15.88,15.88,0,0,1-.69,4.76L664.16,101c-.23.57-.57.85-1,.85h-.86c-.91,0-1.25-.45-1-1.36l8.88-33.16c.22-.8-.06-1.2-.86-1.2H638.89a1.09,1.09,0,0,0-1,.68L628.65,101a.76.76,0,0,1-.86.85h-1c-.91,0-1.25-.45-1-1.36L640.6,45.58a24.85,24.85,0,0,1,9-13.18A23.6,23.6,0,0,1,664.5,26.87Zm11.61,18.71q1.71-6.45-1.62-11.14t-10-4.67a20.5,20.5,0,0,0-13.06,4.84,22.37,22.37,0,0,0-7.94,11.65l-4.27,15.82c-.23.8.06,1.19.86,1.19h30.39c.57,0,.91-.22,1-.68Z"/><path class="cls-1" d="M731.77,38.44c.23.68-.06,1-.85,1h-1c-.46,0-.8-.28-1-.85q-.17-4.76-4.78-8.16a10.82,10.82,0,0,0-6.66-2.05,12.05,12.05,0,0,0-9.22,4.09,10.75,10.75,0,0,0-2.73,9.69q1,4.77,7.43,12.59t7.42,9.52A29.34,29.34,0,0,1,724.6,79.6a25.08,25.08,0,0,1-3.07,12.25q-6.31,11.4-19.81,10.88a20.42,20.42,0,0,1-14.76-7,22.08,22.08,0,0,1-5.72-15.14,22.43,22.43,0,0,1,1-6.8A24.58,24.58,0,0,1,692,61.4c.8-.22,1.25-.11,1.37.34l.51.85A.94.94,0,0,1,693.7,64,20,20,0,0,0,685,74.67a18.77,18.77,0,0,0-.85,6,19.48,19.48,0,0,0,5,13.18,17.2,17.2,0,0,0,12.8,6q11.61.51,17.08-9.35A22.12,22.12,0,0,0,721.7,79.6a27,27,0,0,0-3.76-13.78q-1-1.69-7.85-10t-7.51-13.1A13.71,13.71,0,0,1,706,30.53a15,15,0,0,1,19.81-2.3A12.76,12.76,0,0,1,731.77,38.44Z"/><path class="cls-1" d="M785,38.44c.23.68-.06,1-.85,1h-1c-.46,0-.8-.28-1-.85q-.17-4.76-4.78-8.16a10.82,10.82,0,0,0-6.66-2.05,12.05,12.05,0,0,0-9.22,4.09,10.75,10.75,0,0,0-2.73,9.69q1,4.77,7.43,12.59t7.42,9.52a29.34,29.34,0,0,1,4.27,15.31,25.08,25.08,0,0,1-3.07,12.25q-6.31,11.4-19.81,10.88a20.46,20.46,0,0,1-14.77-7,22.13,22.13,0,0,1-5.72-15.14,22.44,22.44,0,0,1,1-6.8,24.58,24.58,0,0,1,9.73-12.42c.8-.22,1.25-.11,1.37.34l.51.85A.94.94,0,0,1,747,64a20,20,0,0,0-8.71,10.72,18.77,18.77,0,0,0-.85,6,19.48,19.48,0,0,0,5,13.18,17.2,17.2,0,0,0,12.8,6q11.61.51,17.08-9.35A22.12,22.12,0,0,0,775,79.6a27,27,0,0,0-3.76-13.78q-1-1.69-7.85-10t-7.51-13.1a13.71,13.71,0,0,1,3.41-12.16,15,15,0,0,1,19.81-2.3A12.76,12.76,0,0,1,785,38.44Z"/><path class="cls-1" d="M807.75,26.87c.8,0,1.08.4.86,1.19L789,101a.75.75,0,0,1-.85.85h-1c-.8,0-1.08-.45-.85-1.36l19.63-73c0-.45.29-.68.86-.68Z"/><path class="cls-1" d="M844.12,24.83q7,0,11,4.17a14.51,14.51,0,0,1,4,10.46,16.79,16.79,0,0,1-.68,4.93L847.7,84.53a24.94,24.94,0,0,1-9,13.19,23.48,23.48,0,0,1-14.94,5.52A14.68,14.68,0,0,1,813,99.08a14.17,14.17,0,0,1-4.19-10.46,16,16,0,0,1,.69-4.77l10.75-40.31a24.85,24.85,0,0,1,9-13.18A23.63,23.63,0,0,1,844.12,24.83Zm11.61,18.71q1.69-6.28-1.45-11t-10.16-4.77a20.26,20.26,0,0,0-13,5,23.09,23.09,0,0,0-8,11.65L812.19,84.53q-1.71,6.64,1.62,11.23t10,4.59A20.63,20.63,0,0,0,837,95.42a22.67,22.67,0,0,0,8-11.57Z"/><path class="cls-1" d="M914.63,26.87c.8,0,1.08.4.86,1.19l-19.64,73c-.23.57-.57.85-1,.85h-1.37c-.46,0-.8-.28-1-.85L879.12,34.87a.55.55,0,0,0-.51-.34.31.31,0,0,0-.35.34L860.34,101a.76.76,0,0,1-.86.85h-1c-.68,0-1-.45-1-1.36l19.81-73c0-.45.28-.68.85-.68h1.54a1.1,1.1,0,0,1,1,.68l13.32,66a.39.39,0,0,0,.34.42.42.42,0,0,0,.52-.25l17.75-66.17a.92.92,0,0,1,1-.68Z"/><path class="cls-1" d="M962.27,26.87c.68,0,1,.29,1,.85v1a.9.9,0,0,1-1,1H935a.92.92,0,0,0-1,.68l-8.53,31.63c-.23.8.11,1.19,1,1.19h18.78a.9.9,0,0,1,1,1v1c0,.57-.34.85-1,.85H925.05c-.57,0-.86.23-.86.68l-8.36,30.79c-.23.91.11,1.36,1,1.36H943a.76.76,0,0,1,.86.85v1c0,.68-.29,1-.86,1H914.12a1,1,0,0,1-.86-.51l-.68-1a.77.77,0,0,1-.17-.85l19.12-71.27c0-.11.12-.28.35-.51l.85-.68a1,1,0,0,1,.68-.17Z"/></g></g></svg>