<svg xmlns="http://www.w3.org/2000/svg" viewBox="0 0 508.85 198.56"><defs><style>.cls-1{fill:#a90e1e;}</style></defs><title>Risorsa 1</title><g id="Livello_2" data-name="Livello 2"><g id="Livello_1-2" data-name="Livello 1"><path class="cls-1" d="M123.76,12.92c.17.53-.05.8-.67.8h-.8c-.36,0-.63-.22-.81-.67A9.53,9.53,0,0,0,119.08,8a16.75,16.75,0,0,0-4.55-3.86,15.15,15.15,0,0,0-7.22-1.87q-8.7,0-13.1,7.73a13.94,13.94,0,0,0-1.88,6.93q0,8.13,11.77,18.51a57.67,57.67,0,0,1,11.37,13.12,26.73,26.73,0,0,1,3.34,15.12A29.73,29.73,0,0,1,108.91,85a29.46,29.46,0,0,1-22.06,8.12,29.59,29.59,0,0,1-19.59-7.92,28.89,28.89,0,0,1-9.43-18.85,31.35,31.35,0,0,1,5.09-21.45A23.31,23.31,0,0,1,80.7,34a17.05,17.05,0,0,1,13.64,3.86q5.61,4.8,5.62,11.46a14.14,14.14,0,0,1-3.75,9.59c-.27.44-.67.49-1.2.13l-.54-.53a.68.68,0,0,1,0-1.07,12.36,12.36,0,0,0,3.21-8.26,12.16,12.16,0,0,0-4.88-9.72A15.19,15.19,0,0,0,81,36.23,21.36,21.36,0,0,0,64.65,46.42a29.33,29.33,0,0,0-4.54,19.65A26.53,26.53,0,0,0,68.8,83.46a28.62,28.62,0,0,0,38.58-.14,27.41,27.41,0,0,0,9.16-19.65,24.81,24.81,0,0,0-3.21-14.32A53.71,53.71,0,0,0,102.5,37.17Q90.07,26.1,90.06,17.05a16.36,16.36,0,0,1,2.27-8.13,16.26,16.26,0,0,1,6.35-6.59A17.18,17.18,0,0,1,107.31,0a17,17,0,0,1,8.29,2.13,19.47,19.47,0,0,1,5.48,4.66A11.06,11.06,0,0,1,123.76,12.92Z"/><path class="cls-1" d="M154.78,19.45a11.22,11.22,0,0,1,9.36,4.26q3.35,4.26,2,10.26c0,.53-.32.71-.94.53l-.67-.13c-.53-.18-.71-.49-.53-.93a9.51,9.51,0,0,0-1.61-8.26,9.05,9.05,0,0,0-7.62-3.47,16.15,16.15,0,0,0-10.3,3.87,17.68,17.68,0,0,0-6.28,9.19l-8.43,31.44Q128.3,71.4,131,75t7.89,3.59a16.32,16.32,0,0,0,10-3.59,17.42,17.42,0,0,0,6.35-8.66c.18-.53.49-.71.94-.53l.67.13a.74.74,0,0,1,.53,1.06,20.1,20.1,0,0,1-7.15,9.79,18.22,18.22,0,0,1-11.3,4.07,11.64,11.64,0,0,1-8.49-3.2,10.84,10.84,0,0,1-3.28-8.12,13.36,13.36,0,0,1,.53-3.87l8.43-31.57a19.37,19.37,0,0,1,7.09-10.32A18.43,18.43,0,0,1,154.78,19.45Z"/><path class="cls-1" d="M195.7,21.05a11.49,11.49,0,0,1,8.56,3.26,11.21,11.21,0,0,1,3.2,8.19,12.46,12.46,0,0,1-.53,3.73l-11.5,42.9c-.18.44-.45.66-.8.66H194c-.71,0-1-.35-.8-1.06l7-26c.18-.62-.05-.93-.67-.93h-23.8a.86.86,0,0,0-.8.53l-7.22,26.78a.59.59,0,0,1-.67.66h-.8c-.72,0-1-.35-.81-1.06L177,35.7a19.41,19.41,0,0,1,7.08-10.32A18.48,18.48,0,0,1,195.7,21.05Zm9.09,14.65A10,10,0,0,0,203.52,27q-2.61-3.66-7.82-3.66a16.06,16.06,0,0,0-10.23,3.8,17.47,17.47,0,0,0-6.22,9.12l-3.34,12.39c-.18.62,0,.93.67.93h23.8a.71.71,0,0,0,.8-.53Z"/><path class="cls-1" d="M224,51.69a.7.7,0,0,0-.8.79c0,1.69.07,3.33.2,4.93a47.29,47.29,0,0,0,1.07,6.2,27.15,27.15,0,0,0,2.34,6.59,14.26,14.26,0,0,0,4.42,4.93,12.16,12.16,0,0,0,6.95,2.26c.44.18.67.45.67.8V79a.93.93,0,0,1-.2.54.34.34,0,0,1-.47.13Q220.7,79,221,50.89c0-.09.09-.22.27-.4l.67-.8a.74.74,0,0,1,.53-.27h11.1a12.94,12.94,0,0,0,10.7-5.33,13.16,13.16,0,0,0,2.67-11.59,11.24,11.24,0,0,0-4.41-6.72,12,12,0,0,0-7.76-2.47h-9.22a.73.73,0,0,0-.81.53L209.87,79.13c-.18.44-.45.66-.8.66h-.67c-.71,0-1-.35-.8-1.06L223,21.58c.08-.35.35-.53.8-.53h11A14.29,14.29,0,0,1,249.05,32a14.89,14.89,0,0,1-3,13.52,15.22,15.22,0,0,1-12.5,6.2Z"/><path class="cls-1" d="M265.23,21.05c.62,0,.85.31.67.93L250.52,79.13a.59.59,0,0,1-.67.66h-.8c-.63,0-.85-.35-.67-1.06l15.38-57.15c0-.35.22-.53.67-.53Z"/><path class="cls-1" d="M293.84,19.45a11.21,11.21,0,0,1,9.36,4.26q3.35,4.26,2,10.26c0,.53-.31.71-.94.53l-.67-.13c-.53-.18-.71-.49-.53-.93a9.51,9.51,0,0,0-1.6-8.26,9.09,9.09,0,0,0-7.63-3.47,16.14,16.14,0,0,0-10.29,3.87,17.7,17.7,0,0,0-6.29,9.19l-8.42,31.44Q267.37,71.4,270,75t7.89,3.59a16.28,16.28,0,0,0,10-3.59,17.44,17.44,0,0,0,6.36-8.66c.17-.53.48-.71.93-.53l.67.13a.74.74,0,0,1,.53,1.06,20.1,20.1,0,0,1-7.15,9.79,18.2,18.2,0,0,1-11.3,4.07,11.64,11.64,0,0,1-8.49-3.2,10.84,10.84,0,0,1-3.28-8.12,13,13,0,0,1,.54-3.87l8.42-31.57a19.37,19.37,0,0,1,7.09-10.32A18.43,18.43,0,0,1,293.84,19.45Z"/><path class="cls-1" d="M334.76,21.05a11.48,11.48,0,0,1,8.56,3.26,11.22,11.22,0,0,1,3.21,8.19,12.46,12.46,0,0,1-.54,3.73l-11.5,42.9c-.18.44-.44.66-.8.66H333c-.71,0-1-.35-.8-1.06l6.95-26q.27-.93-.66-.93H314.7a.87.87,0,0,0-.8.53l-7.22,26.78a.59.59,0,0,1-.67.66h-.8c-.71,0-1-.35-.8-1.06L316,35.7a19.37,19.37,0,0,1,7.09-10.32A18.43,18.43,0,0,1,334.76,21.05Zm9.09,14.65A10,10,0,0,0,342.58,27q-2.59-3.66-7.82-3.66a16.1,16.1,0,0,0-10.23,3.8,17.53,17.53,0,0,0-6.22,9.12L315,48.62c-.18.62,0,.93.67.93h23.8c.45,0,.71-.17.8-.53Z"/><path class="cls-1" d="M390.25,21.05c.63,0,.85.31.67.93L375.54,79.13a.58.58,0,0,1-.66.66h-.81c-.62,0-.84-.35-.66-1.06l15.37-57.15c0-.35.22-.53.67-.53Z"/><path class="cls-1" d="M412.45,77.53c.53,0,.8.22.8.66V79a.71.71,0,0,1-.8.8h-22.6a.51.51,0,0,1-.53-.4l-.67-.8a.59.59,0,0,1-.14-.66l15.11-56.35c0-.35.23-.53.67-.53h.8q1.08,0,.81.93L391.19,76.46c-.18.71.09,1.07.8,1.07Z"/><path class="cls-1" d="M44.8,126.45q.93,0,.66.93L30.09,184.53a.88.88,0,0,1-.81.66H28.21c-.35,0-.62-.22-.8-.66L17,132.71a.43.43,0,0,0-.4-.27.24.24,0,0,0-.27.27l-14,51.82a.59.59,0,0,1-.67.66H.8c-.53,0-.8-.35-.8-1.06L15.51,127c0-.35.22-.53.67-.53h1.2a.87.87,0,0,1,.81.53l10.43,51.69a.31.31,0,0,0,.26.33.33.33,0,0,0,.4-.2L43.19,127a.72.72,0,0,1,.8-.53Z"/><path class="cls-1" d="M72.34,124.85A11,11,0,0,1,84.11,136.3a13.31,13.31,0,0,1-.53,3.87l-8.43,31.44a19.59,19.59,0,0,1-7,10.32,18.35,18.35,0,0,1-11.7,4.33A11.49,11.49,0,0,1,47.94,183a11,11,0,0,1-3.28-8.19,12.5,12.5,0,0,1,.54-3.73l8.42-31.57a19.41,19.41,0,0,1,7.09-10.32A18.43,18.43,0,0,1,72.34,124.85Zm9.1,14.65a10.18,10.18,0,0,0-1.14-8.66c-1.65-2.48-4.3-3.73-8-3.73A15.85,15.85,0,0,0,62.18,131a18.06,18.06,0,0,0-6.28,9.13l-8.56,31.44Q46,176.8,48.61,180.4C50.35,182.79,53,184,56.43,184a16.16,16.16,0,0,0,10.3-3.86A17.69,17.69,0,0,0,73,171.07Z"/><path class="cls-1" d="M124.49,135.51c.18.53,0,.79-.67.79H123c-.36,0-.62-.22-.8-.66a8.19,8.19,0,0,0-3.75-6.4,8.47,8.47,0,0,0-5.21-1.59,9.43,9.43,0,0,0-7.22,3.19,8.44,8.44,0,0,0-2.14,7.6q.8,3.72,5.82,9.85t5.81,7.46a23,23,0,0,1,3.35,12,19.67,19.67,0,0,1-2.41,9.59q-4.95,8.92-15.51,8.53a16,16,0,0,1-11.57-5.46,17.33,17.33,0,0,1-4.48-11.86,17.73,17.73,0,0,1,.8-5.33,19.27,19.27,0,0,1,7.63-9.72c.62-.18,1-.09,1.07.27l.4.66a.75.75,0,0,1-.14,1.07,15.64,15.64,0,0,0-6.82,8.39,14.87,14.87,0,0,0-.67,4.66,15.31,15.31,0,0,0,3.88,10.33,13.49,13.49,0,0,0,10,4.72q9.09.41,13.37-7.32a17.29,17.29,0,0,0,2.14-8.53A21.15,21.15,0,0,0,113.66,157c-.53-.88-2.59-3.5-6.15-7.86s-5.53-7.77-5.88-10.25a10.72,10.72,0,0,1,2.67-9.53,11.74,11.74,0,0,1,15.51-1.8A10,10,0,0,1,124.49,135.51Z"/><path class="cls-1" d="M166.21,126.45q.81,0,.81.66v.8a.71.71,0,0,1-.81.8H152.57a.62.62,0,0,0-.66.53l-14.85,55.29c-.18.44-.44.66-.8.66h-.8c-.63,0-.85-.35-.67-1.06l14.71-54.49c.18-.62-.09-.93-.8-.93H134.12a.71.71,0,0,1-.8-.8v-.8c0-.44.27-.66.8-.66Z"/><path class="cls-1" d="M178.25,157.09a.71.71,0,0,0-.81.79c0,1.69.07,3.33.2,4.93a47.29,47.29,0,0,0,1.07,6.2,27.15,27.15,0,0,0,2.34,6.59,14.26,14.26,0,0,0,4.42,4.93,12.19,12.19,0,0,0,6.95,2.26c.45.18.67.45.67.8v.8a.93.93,0,0,1-.2.54.34.34,0,0,1-.47.13q-17.52-.66-17.25-28.77c0-.09.09-.22.27-.4l.67-.8a.74.74,0,0,1,.53-.27h11.1a12.94,12.94,0,0,0,10.7-5.33,13.16,13.16,0,0,0,2.67-11.59,11.24,11.24,0,0,0-4.41-6.72,12,12,0,0,0-7.76-2.47h-9.22c-.45,0-.72.18-.8.53l-14.85,55.29c-.18.44-.45.66-.8.66h-.67c-.71,0-1-.35-.8-1.06L177.18,127c.08-.35.35-.53.8-.53h11a14.29,14.29,0,0,1,14.31,10.92,14.86,14.86,0,0,1-3,13.52,15.22,15.22,0,0,1-12.5,6.2Z"/><path class="cls-1" d="M232.8,124.85a11,11,0,0,1,11.77,11.45,13.31,13.31,0,0,1-.53,3.87l-8.43,31.44a19.59,19.59,0,0,1-7,10.32,18.35,18.35,0,0,1-11.7,4.33A11.49,11.49,0,0,1,208.4,183a11,11,0,0,1-3.28-8.19,12.5,12.5,0,0,1,.54-3.73l8.42-31.57a19.41,19.41,0,0,1,7.09-10.32A18.43,18.43,0,0,1,232.8,124.85Zm9.1,14.65a10.18,10.18,0,0,0-1.14-8.66c-1.65-2.48-4.3-3.73-8-3.73A15.85,15.85,0,0,0,222.64,131a18,18,0,0,0-6.28,9.13l-8.56,31.44q-1.34,5.19,1.27,8.79c1.74,2.39,4.34,3.59,7.82,3.59a16.16,16.16,0,0,0,10.3-3.86,17.69,17.69,0,0,0,6.28-9.06Z"/><path class="cls-1" d="M391.39,106.47l-21.13,77a18,18,0,0,0-.53,8.53,7.69,7.69,0,0,0,3.74,4.39.69.69,0,0,1,.27,1.07l-.4.66a.82.82,0,0,1-.47.4c-.22.09-.38.05-.47-.13a9.58,9.58,0,0,1-4.81-5.86q-.94-3.74.53-9.73l18.06-65.67c.08-.35-.05-.48-.4-.4a.56.56,0,0,0-.41.14l-40.78,74.46a.65.65,0,0,1-.8.4l-.94-.27a.59.59,0,0,1-.67-.66l-1.74-75.13q0-.27-.33-.27a.48.48,0,0,0-.47.27l-13.1,48.09a45.92,45.92,0,0,1-11,20A24.79,24.79,0,0,1,297,191.72a28.09,28.09,0,0,1-4.68-.4q-11.51-2-18.19-10.19a28.59,28.59,0,0,1-6.69-18.58q0-14,11.37-22.91a26.6,26.6,0,0,1,16.85-6.13q12.17,0,20.59,10c.36.26.31.62-.13,1.06l-.67.54c-.36.35-.67.31-.94-.14q-7.75-9.18-18.85-9.19a24.84,24.84,0,0,0-15.51,5.6,25.57,25.57,0,0,0-10.43,21.18,26.74,26.74,0,0,0,23,26.51,24.44,24.44,0,0,0,4.41.4A22.51,22.51,0,0,0,314.24,182a44,44,0,0,0,10-18.79l15.65-57.14a.85.85,0,0,1,.8-.54h1.07c.45,0,.67.27.67.8l1.87,77.93a.74.74,0,0,0,.6.73.63.63,0,0,0,.87-.33l43.06-78.73a.63.63,0,0,1,.67-.4h1.2C391.34,105.53,391.57,105.85,391.39,106.47Z"/><path class="cls-1" d="M424,126.45c.53,0,.8.22.8.66v.8a.71.71,0,0,1-.8.8h-21.4a.72.72,0,0,0-.8.53L395.13,154c-.17.62.09.93.81.93h14.71a.71.71,0,0,1,.8.8v.8c0,.45-.27.67-.8.67H394.87c-.45,0-.67.18-.67.53l-6.55,24.11c-.18.71.08,1.07.8,1.07h20.46a.59.59,0,0,1,.67.66v.8c0,.54-.23.8-.67.8h-22.6a.78.78,0,0,1-.67-.4l-.53-.8a.59.59,0,0,1-.14-.66l15-55.82c0-.08.09-.22.27-.4l.66-.53a.79.79,0,0,1,.54-.13Z"/><path class="cls-1" d="M464.27,126.45q.93,0,.66.93l-15.37,57.15a.88.88,0,0,1-.81.66h-1.07c-.35,0-.62-.22-.8-.66l-10.43-51.82a.43.43,0,0,0-.4-.27.24.24,0,0,0-.27.27l-14,51.82a.59.59,0,0,1-.67.66h-.8c-.53,0-.8-.35-.8-1.06L435,127c0-.35.22-.53.67-.53h1.2a.87.87,0,0,1,.81.53l10.43,51.69a.31.31,0,0,0,.26.33.33.33,0,0,0,.4-.2L462.66,127a.72.72,0,0,1,.8-.53Z"/><path class="cls-1" d="M508.12,126.45c.63,0,.85.31.67.93l-11.9,44.23a19.59,19.59,0,0,1-7,10.32,18.19,18.19,0,0,1-11.56,4.33,11.56,11.56,0,0,1-8.63-3.33,11.33,11.33,0,0,1-3.28-8.26,12.46,12.46,0,0,1,.54-3.73l11.9-44a.63.63,0,0,1,.67-.53h.8c.71,0,1,.31.8.93l-11.9,44.23q-1.47,5.05,1.14,8.72t8,3.66a16,16,0,0,0,10.16-3.86,17.68,17.68,0,0,0,6.28-9.19l11.9-44c0-.35.23-.53.67-.53Z"/></g></g></svg>