<?xml version="1.0" encoding="utf-8"?>
<!-- Generator: Adobe Illustrator 22.1.0, SVG Export Plug-In . SVG Version: 6.00 Build 0)  -->
<svg version="1.1" id="Livello_1" xmlns="http://www.w3.org/2000/svg" xmlns:xlink="http://www.w3.org/1999/xlink" x="0px" y="0px"
	 viewBox="0 0 91 91" style="enable-background:new 0 0 91 91;" xml:space="preserve">
<style type="text/css">
	.st0{fill:#FFFCF1;}
</style>
<g>
	<g>
		<path class="st0" d="M91,17.1v56.8c0,4.7-1.7,8.7-5,12.1c-3.3,3.3-7.4,5-12.1,5H62.8V55.7h11.8L76.3,42H62.8v-8.8
			c0-2.2,0.5-3.9,1.4-5c0.9-1.1,2.7-1.7,5.4-1.7l7.2-0.1V14.3c-2.5-0.4-6-0.5-10.5-0.5c-5.4,0-9.7,1.6-12.9,4.7
			c-3.2,3.2-4.8,7.6-4.8,13.4V42H36.7v13.7h11.8V91H17.1c-4.7,0-8.7-1.7-12.1-5c-3.3-3.3-5-7.4-5-12.1V17.1C0,12.4,1.7,8.3,5,5
			s7.4-5,12.1-5h56.8C75,0,76,0.1,77,0.3c3.4,0.6,6.4,2.2,9,4.7C89.3,8.3,91,12.4,91,17.1z"/>
	</g>
</g>
</svg>
