<?xml version="1.0" encoding="utf-8"?>
<!-- Generator: Adobe Illustrator 22.1.0, SVG Export Plug-In . SVG Version: 6.00 Build 0)  -->
<svg version="1.1" id="Livello_1" xmlns="http://www.w3.org/2000/svg" xmlns:xlink="http://www.w3.org/1999/xlink" x="0px" y="0px"
	 viewBox="0 0 91 91" style="enable-background:new 0 0 91 91;" xml:space="preserve">
<style type="text/css">

</style>

<style>



@keyframes dannato{
from{
transform:rotate(0deg)
}
to{
transform:rotate(360deg)
}

}






.color{
animation: dannato 1s infinite linear;
fill:#86171E;
animation-play-state: paused;
}

.color:hover{
fill:#fffcf1;
animation-play-state:running;

}



</style>



<g class="color">
	<g>
		<path class="st0" d="M73.9,0c4.7,0,8.7,1.7,12.1,5c3.3,3.3,5,7.4,5,12.1v56.8c0,4.7-1.7,8.7-5,12.1c-3.3,3.3-7.4,5-12.1,5H62.8
			V55.7h11.8L76.3,42H62.8v-8.8c0-2.2,0.5-3.9,1.4-5c0.9-1.1,2.7-1.7,5.4-1.7l7.2-0.1V14.3c-2.5-0.4-6-0.5-10.5-0.5
			c-5.4,0-9.7,1.6-12.9,4.7c-3.2,3.2-4.8,7.6-4.8,13.4V42H36.7v13.7h11.8V91H17.1c-4.7,0-8.7-1.7-12.1-5c-3.3-3.3-5-7.4-5-12.1V17.1
			C0,12.4,1.7,8.3,5,5c3.3-3.3,7.4-5,12.1-5H73.9z"/>
	</g>
</g>
<g >
	<g>
		<path class="st0" d="M938.8,16.8h24.3c-1.9,2.2-3.5,4.6-4.8,7.3c-1.3,2.7-2.2,5.1-2.5,7.3c4.7,6.4,7,13.5,7,21.4
			c0,6.6-1.6,12.7-4.9,18.3c-3.3,5.6-7.7,10-13.3,13.3c-5.6,3.2-11.7,4.9-18.2,4.9c-5.6,0-10.9-1.2-15.8-3.6
			c-4.9-2.4-9.1-5.7-12.5-9.9c-2,2.4-4.7,6.2-8.2,11.4c-0.5-0.9-1.6-2.7-3.4-5.2c-1.8-2.6-3.4-4.6-4.7-6.2
			c-3.4,4.2-7.6,7.5-12.5,9.9c-4.9,2.4-10.2,3.6-15.9,3.6c-6.6,0-12.6-1.6-18.2-4.9c-5.6-3.2-10-7.7-13.3-13.3
			c-3.3-5.6-4.9-11.7-4.9-18.3c0-7.9,2.3-15,7-21.4c-0.4-2.2-1.2-4.6-2.5-7.3c-1.3-2.7-2.9-5.1-4.8-7.3H840
			c6.3-4.2,13.8-7.6,22.6-9.9c8.7-2.4,17.9-3.6,27.5-3.6c9.5,0,18.4,1.2,26.8,3.6C925.1,9.2,932.5,12.5,938.8,16.8z M874.3,73.5
			c5.7-5.7,8.6-12.7,8.6-20.7s-2.9-15-8.6-20.7c-5.7-5.7-12.7-8.6-20.7-8.6c-5.3,0-10.2,1.3-14.7,3.9c-4.5,2.6-8,6.2-10.7,10.7
			c-2.6,4.5-3.9,9.4-3.9,14.7s1.3,10.2,3.9,14.7c2.6,4.5,6.2,8.1,10.7,10.7c4.5,2.6,9.4,3.9,14.7,3.9
			C861.6,82.1,868.5,79.2,874.3,73.5z M870.8,52.6c0,4.9-1.7,9.1-5.2,12.6c-3.5,3.5-7.6,5.2-12.5,5.2c-4.9,0-9.1-1.7-12.6-5.2
			c-3.5-3.5-5.2-7.6-5.2-12.5c0-4.9,1.7-9,5.2-12.5c3.5-3.5,7.6-5.2,12.5-5.2c4.9,0,9,1.7,12.5,5.2
			C869.1,43.6,870.8,47.7,870.8,52.6z M865.4,52.6c0-3.3-1.2-6.2-3.6-8.6c-2.4-2.4-5.3-3.6-8.7-3.6s-6.3,1.2-8.7,3.6
			c-2.4,2.4-3.6,5.3-3.6,8.7c0,3.4,1.2,6.3,3.6,8.7c2.4,2.4,5.3,3.6,8.7,3.6s6.3-1.2,8.7-3.6C864.2,58.9,865.4,56,865.4,52.6z
			 M858.1,52.6c0,1.7-0.6,3.1-1.7,4.2c-1.2,1.2-2.6,1.7-4.2,1.7c-1.7,0-3.1-0.6-4.2-1.7c-1.2-1.2-1.7-2.6-1.7-4.2
			c0-1.6,0.6-3,1.7-4.2c1.2-1.2,2.6-1.7,4.2-1.7c1.6,0,3,0.6,4.2,1.7C857.6,49.6,858.1,51,858.1,52.6z M925.3,16.3
			c-10.8-4.7-22.5-7.1-35.3-7.1c-13.5,0-25.7,2.3-36.4,7c5,0,9.7,1,14.2,2.9c4.5,1.9,8.4,4.5,11.6,7.8c3.2,3.3,5.8,7.1,7.8,11.6
			c1.9,4.5,2.9,9.2,2.9,14.2c0-4.9,0.9-9.5,2.8-13.9c1.8-4.4,4.3-8.3,7.5-11.5s6.9-5.8,11.3-7.8C915.9,17.5,920.5,16.4,925.3,16.3z
			 M947.2,73.5c5.7-5.7,8.6-12.7,8.6-20.7s-2.9-15-8.6-20.7c-5.7-5.7-12.6-8.6-20.7-8.6c-8.1,0-15,2.9-20.7,8.6
			c-5.7,5.7-8.6,12.7-8.6,20.7s2.9,15,8.6,20.7c5.7,5.7,12.7,8.6,20.7,8.6C934.5,82.1,941.5,79.2,947.2,73.5z M938.9,40
			c3.5,3.5,5.2,7.6,5.2,12.5c0,4.9-1.7,9-5.2,12.5c-3.5,3.5-7.6,5.2-12.6,5.2c-4.9,0-9-1.7-12.5-5.2c-3.5-3.5-5.2-7.6-5.2-12.5
			c0-4.9,1.7-9,5.2-12.5c3.5-3.5,7.6-5.2,12.5-5.2C931.3,34.9,935.5,36.6,938.9,40z M935.1,61.2c2.4-2.4,3.6-5.3,3.6-8.7
			c0-3.4-1.2-6.3-3.6-8.7c-2.4-2.4-5.3-3.6-8.7-3.6c-3.3,0-6.2,1.2-8.6,3.6c-2.4,2.4-3.6,5.3-3.6,8.7c0,3.4,1.2,6.3,3.6,8.7
			c2.4,2.4,5.3,3.6,8.7,3.6S932.7,63.6,935.1,61.2z M929.7,48.3c1.2,1.1,1.7,2.5,1.7,4.2s-0.6,3.1-1.7,4.2c-1.2,1.2-2.6,1.7-4.2,1.7
			c-1.7,0-3.1-0.6-4.2-1.7c-1.2-1.2-1.7-2.6-1.7-4.2s0.6-3.1,1.7-4.2c1.2-1.1,2.6-1.7,4.2-1.7C927.2,46.6,928.6,47.2,929.7,48.3z"/>
	</g>
</g>
<g id="hover">
	<g>
		<path class="st0" d="M760.3,46.1c0,9-0.1,15.3-0.3,18.8c-0.4,8.2-2.8,14.6-7.3,19.1c-4.5,4.5-10.9,6.9-19.1,7.3
			c-3.5,0.2-9.7,0.3-18.8,0.3s-15.3-0.1-18.8-0.3c-8.2-0.4-14.6-2.8-19.1-7.3c-4.5-4.5-6.9-10.9-7.3-19.1c-0.2-3.5-0.3-9.7-0.3-18.8
			c0-9,0.1-15.3,0.3-18.8c0.4-8.2,2.8-14.6,7.3-19.1c4.5-4.5,10.9-6.9,19.1-7.3c3.5-0.2,9.7-0.3,18.8-0.3s15.3,0.1,18.8,0.3
			c8.2,0.4,14.6,2.8,19.1,7.3c4.5,4.5,6.9,10.9,7.3,19.1C760.2,30.8,760.3,37,760.3,46.1z M719.3,8.7c-2.7,0-4.3,0-4.5,0
			s-1.8,0-4.5,0c-2.7,0-4.8,0-6.2,0c-1.4,0-3.3,0.1-5.7,0.2c-2.4,0.1-4.4,0.3-6.1,0.6c-1.7,0.3-3.1,0.7-4.2,1.1
			c-2,0.8-3.7,1.9-5.2,3.4c-1.5,1.5-2.6,3.2-3.4,5.2c-0.4,1.1-0.8,2.6-1.1,4.2c-0.3,1.7-0.5,3.7-0.6,6.1c-0.1,2.4-0.2,4.3-0.2,5.7
			c0,1.4,0,3.5,0,6.2c0,2.7,0,4.3,0,4.5c0,0.3,0,1.8,0,4.5c0,2.7,0,4.8,0,6.2c0,1.4,0.1,3.3,0.2,5.7c0.1,2.4,0.3,4.4,0.6,6.1
			c0.3,1.7,0.7,3.1,1.1,4.2c0.8,2,1.9,3.7,3.4,5.2c1.5,1.5,3.2,2.6,5.2,3.4c1.1,0.4,2.6,0.8,4.2,1.1c1.7,0.3,3.7,0.5,6.1,0.6
			c2.4,0.1,4.3,0.2,5.7,0.2c1.4,0,3.5,0,6.2,0c2.7,0,4.3,0,4.5,0s1.8,0,4.5,0c2.7,0,4.8,0,6.2,0c1.4,0,3.3-0.1,5.7-0.2
			c2.4-0.1,4.4-0.3,6.1-0.6c1.7-0.3,3.1-0.7,4.2-1.1c2-0.8,3.7-1.9,5.2-3.4c1.5-1.5,2.6-3.2,3.4-5.2c0.4-1.1,0.8-2.6,1.1-4.2
			c0.3-1.7,0.5-3.7,0.6-6.1c0.1-2.4,0.2-4.3,0.2-5.7c0-1.4,0-3.5,0-6.2c0-2.7,0-4.3,0-4.5c0-0.3,0-1.8,0-4.5c0-2.7,0-4.8,0-6.2
			c0-1.4-0.1-3.3-0.2-5.7c-0.1-2.4-0.3-4.4-0.6-6.1c-0.3-1.7-0.7-3.1-1.1-4.2c-0.8-2-1.9-3.7-3.4-5.2c-1.5-1.5-3.2-2.6-5.2-3.4
			c-1.1-0.4-2.6-0.8-4.2-1.1c-1.7-0.3-3.7-0.5-6.1-0.6c-2.4-0.1-4.3-0.2-5.7-0.2C724.1,8.7,722,8.7,719.3,8.7z M731.3,29.6
			c4.5,4.5,6.8,10,6.8,16.5c0,6.5-2.3,12-6.8,16.5c-4.5,4.5-10,6.8-16.5,6.8c-6.5,0-12-2.3-16.5-6.8c-4.5-4.5-6.8-10-6.8-16.5
			c0-6.5,2.3-12,6.8-16.5c4.5-4.5,10-6.8,16.5-6.8C721.2,22.8,726.8,25,731.3,29.6z M725.5,56.8c3-3,4.4-6.5,4.4-10.7
			c0-4.2-1.5-7.8-4.4-10.7c-3-3-6.5-4.4-10.7-4.4c-4.2,0-7.8,1.5-10.7,4.4c-3,3-4.4,6.5-4.4,10.7c0,4.2,1.5,7.8,4.4,10.7
			c3,3,6.5,4.4,10.7,4.4C719,61.2,722.5,59.8,725.5,56.8z M742.9,18c1.1,1.1,1.6,2.3,1.6,3.8c0,1.5-0.5,2.8-1.6,3.8
			c-1.1,1.1-2.4,1.6-3.8,1.6c-1.5,0-2.8-0.5-3.8-1.6c-1.1-1.1-1.6-2.3-1.6-3.8c0-1.5,0.5-2.8,1.6-3.8c1.1-1.1,2.3-1.6,3.8-1.6
			C740.6,16.4,741.8,16.9,742.9,18z"/>
	</g>
</g>
</svg>
