<?xml version="1.0" encoding="utf-8"?>
<!-- Generator: Adobe Illustrator 22.1.0, SVG Export Plug-In . SVG Version: 6.00 Build 0)  -->
<svg version="1.1" id="Livello_1" xmlns="http://www.w3.org/2000/svg" xmlns:xlink="http://www.w3.org/1999/xlink" x="0px" y="0px"
	 viewBox="0 0 91 91" style="enable-background:new 0 0 91 91;" xml:space="preserve">
<style type="text/css">
	
</style>




<style>







.color{

fill:#86171E;
animation-play-state: paused;
}

.color:hover{
fill:#fffcf1;
animation-play-state:running;

}



</style>




<g >
	<g>
		<path class="st0" d="M-595.4-0.6c4.7,0,8.7,1.7,12.1,5c3.3,3.3,5,7.4,5,12.1v56.8c0,4.7-1.7,8.7-5,12.1c-3.3,3.3-7.4,5-12.1,5
			h-11.1V55.1h11.8l1.8-13.7h-13.6v-8.8c0-2.2,0.5-3.9,1.4-5c0.9-1.1,2.7-1.7,5.4-1.7l7.2-0.1V13.7c-2.5-0.4-6-0.5-10.5-0.5
			c-5.4,0-9.7,1.6-12.9,4.7c-3.2,3.2-4.8,7.6-4.8,13.4v10.1h-11.8v13.7h11.8v35.2h-31.5c-4.7,0-8.7-1.7-12.1-5
			c-3.3-3.3-5-7.4-5-12.1V16.5c0-4.7,1.7-8.7,5-12.1c3.3-3.3,7.4-5,12.1-5H-595.4z"/>
	</g>
</g>
<g >
	<g>
		<path class="st0" d="M269.6,16.2h24.3c-1.9,2.2-3.5,4.6-4.8,7.3c-1.3,2.7-2.2,5.1-2.5,7.3c4.7,6.4,7,13.5,7,21.4
			c0,6.6-1.6,12.7-4.9,18.3c-3.3,5.6-7.7,10-13.3,13.3c-5.6,3.2-11.7,4.9-18.2,4.9c-5.6,0-10.9-1.2-15.8-3.6
			c-4.9-2.4-9.1-5.7-12.5-9.9c-2,2.4-4.7,6.2-8.2,11.4c-0.5-0.9-1.6-2.7-3.4-5.2c-1.8-2.6-3.4-4.6-4.7-6.2
			c-3.4,4.2-7.6,7.5-12.5,9.9c-4.9,2.4-10.2,3.6-15.9,3.6c-6.6,0-12.6-1.6-18.2-4.9c-5.6-3.2-10-7.7-13.3-13.3
			c-3.3-5.6-4.9-11.7-4.9-18.3c0-7.9,2.3-15,7-21.4c-0.4-2.2-1.2-4.6-2.5-7.3c-1.3-2.7-2.9-5.1-4.8-7.3h23.2
			c6.3-4.2,13.8-7.6,22.6-9.9c8.7-2.4,17.9-3.6,27.5-3.6c9.5,0,18.4,1.2,26.8,3.6C255.8,8.5,263.2,11.9,269.6,16.2z M205,72.9
			c5.7-5.7,8.6-12.7,8.6-20.7s-2.9-15-8.6-20.7c-5.7-5.7-12.7-8.6-20.7-8.6c-5.3,0-10.2,1.3-14.7,3.9c-4.5,2.6-8,6.2-10.7,10.7
			c-2.6,4.5-3.9,9.4-3.9,14.7s1.3,10.2,3.9,14.7c2.6,4.5,6.2,8.1,10.7,10.7c4.5,2.6,9.4,3.9,14.7,3.9
			C192.3,81.5,199.2,78.6,205,72.9z M201.5,52c0,4.9-1.7,9.1-5.2,12.6c-3.5,3.5-7.6,5.2-12.5,5.2c-4.9,0-9.1-1.7-12.6-5.2
			c-3.5-3.5-5.2-7.6-5.2-12.5c0-4.9,1.7-9,5.2-12.5c3.5-3.5,7.6-5.2,12.5-5.2c4.9,0,9,1.7,12.5,5.2C199.8,43,201.5,47.1,201.5,52z
			 M196.1,52c0-3.3-1.2-6.2-3.6-8.6c-2.4-2.4-5.3-3.6-8.7-3.6s-6.3,1.2-8.7,3.6c-2.4,2.4-3.6,5.3-3.6,8.7c0,3.4,1.2,6.3,3.6,8.7
			c2.4,2.4,5.3,3.6,8.7,3.6s6.3-1.2,8.7-3.6C194.9,58.3,196.1,55.4,196.1,52z M188.8,52c0,1.7-0.6,3.1-1.7,4.2
			c-1.2,1.2-2.6,1.7-4.2,1.7c-1.7,0-3.1-0.6-4.2-1.7c-1.2-1.2-1.7-2.6-1.7-4.2c0-1.6,0.6-3,1.7-4.2c1.2-1.2,2.6-1.7,4.2-1.7
			c1.6,0,3,0.6,4.2,1.7C188.3,49,188.8,50.4,188.8,52z M256,15.7c-10.8-4.7-22.5-7.1-35.3-7.1c-13.5,0-25.7,2.3-36.4,7
			c5,0,9.7,1,14.2,2.9c4.5,1.9,8.4,4.5,11.6,7.8c3.2,3.3,5.8,7.1,7.8,11.6c1.9,4.5,2.9,9.2,2.9,14.2c0-4.9,0.9-9.5,2.8-13.9
			c1.8-4.4,4.3-8.3,7.5-11.5s6.9-5.8,11.3-7.8C246.6,16.9,251.2,15.8,256,15.7z M277.9,72.9c5.7-5.7,8.6-12.7,8.6-20.7
			s-2.9-15-8.6-20.7c-5.7-5.7-12.6-8.6-20.7-8.6c-8.1,0-15,2.9-20.7,8.6c-5.7,5.7-8.6,12.7-8.6,20.7s2.9,15,8.6,20.7
			c5.7,5.7,12.7,8.6,20.7,8.6C265.3,81.5,272.2,78.6,277.9,72.9z M269.6,39.4c3.5,3.5,5.2,7.6,5.2,12.5c0,4.9-1.7,9-5.2,12.5
			c-3.5,3.5-7.6,5.2-12.6,5.2c-4.9,0-9-1.7-12.5-5.2c-3.5-3.5-5.2-7.6-5.2-12.5c0-4.9,1.7-9,5.2-12.5c3.5-3.5,7.6-5.2,12.5-5.2
			C262,34.3,266.2,36,269.6,39.4z M265.8,60.6c2.4-2.4,3.6-5.3,3.6-8.7c0-3.4-1.2-6.3-3.6-8.7c-2.4-2.4-5.3-3.6-8.7-3.6
			c-3.3,0-6.2,1.2-8.6,3.6c-2.4,2.4-3.6,5.3-3.6,8.7c0,3.4,1.2,6.3,3.6,8.7c2.4,2.4,5.3,3.6,8.7,3.6S263.4,63,265.8,60.6z
			 M260.4,47.7c1.2,1.1,1.7,2.5,1.7,4.2s-0.6,3.1-1.7,4.2c-1.2,1.2-2.6,1.7-4.2,1.7c-1.7,0-3.1-0.6-4.2-1.7
			c-1.2-1.2-1.7-2.6-1.7-4.2s0.6-3.1,1.7-4.2c1.2-1.1,2.6-1.7,4.2-1.7C257.9,46,259.3,46.6,260.4,47.7z"/>
	</g>
</g>
<g class="color">
	<g>
		<path class="st0" d="M91,45.5c0,9-0.1,15.3-0.3,18.8c-0.4,8.2-2.8,14.6-7.3,19.1c-4.5,4.5-10.9,6.9-19.1,7.3
			c-3.5,0.2-9.7,0.3-18.8,0.3s-15.3-0.1-18.8-0.3c-8.2-0.4-14.6-2.8-19.1-7.3c-4.5-4.5-6.9-10.9-7.3-19.1C0.1,60.8,0,54.5,0,45.5
			c0-9,0.1-15.3,0.3-18.8c0.4-8.2,2.8-14.6,7.3-19.1c4.5-4.5,10.9-6.9,19.1-7.3C30.2,0.1,36.4,0,45.5,0s15.3,0.1,18.8,0.3
			c8.2,0.4,14.6,2.8,19.1,7.3c4.5,4.5,6.9,10.9,7.3,19.1C90.9,30.2,91,36.4,91,45.5z M50,8.1c-2.7,0-4.3,0-4.5,0c-0.3,0-1.8,0-4.5,0
			c-2.7,0-4.8,0-6.2,0c-1.4,0-3.3,0.1-5.7,0.2c-2.4,0.1-4.4,0.3-6.1,0.6c-1.7,0.3-3.1,0.7-4.2,1.1c-2,0.8-3.7,1.9-5.2,3.4
			c-1.5,1.5-2.6,3.2-3.4,5.2c-0.4,1.1-0.8,2.6-1.1,4.2c-0.3,1.7-0.5,3.7-0.6,6.1c-0.1,2.4-0.2,4.3-0.2,5.7c0,1.4,0,3.5,0,6.2
			c0,2.7,0,4.3,0,4.5c0,0.3,0,1.8,0,4.5c0,2.7,0,4.8,0,6.2c0,1.4,0.1,3.3,0.2,5.7c0.1,2.4,0.3,4.4,0.6,6.1c0.3,1.7,0.7,3.1,1.1,4.2
			c0.8,2,1.9,3.7,3.4,5.2c1.5,1.5,3.2,2.6,5.2,3.4c1.1,0.4,2.6,0.8,4.2,1.1c1.7,0.3,3.7,0.5,6.1,0.6c2.4,0.1,4.3,0.2,5.7,0.2
			c1.4,0,3.5,0,6.2,0c2.7,0,4.3,0,4.5,0c0.3,0,1.8,0,4.5,0c2.7,0,4.8,0,6.2,0c1.4,0,3.3-0.1,5.7-0.2c2.4-0.1,4.4-0.3,6.1-0.6
			c1.7-0.3,3.1-0.7,4.2-1.1c2-0.8,3.7-1.9,5.2-3.4c1.5-1.5,2.6-3.2,3.4-5.2c0.4-1.1,0.8-2.6,1.1-4.2c0.3-1.7,0.5-3.7,0.6-6.1
			c0.1-2.4,0.2-4.3,0.2-5.7c0-1.4,0-3.5,0-6.2c0-2.7,0-4.3,0-4.5c0-0.3,0-1.8,0-4.5c0-2.7,0-4.8,0-6.2c0-1.4-0.1-3.3-0.2-5.7
			c-0.1-2.4-0.3-4.4-0.6-6.1c-0.3-1.7-0.7-3.1-1.1-4.2c-0.8-2-1.9-3.7-3.4-5.2c-1.5-1.5-3.2-2.6-5.2-3.4c-1.1-0.4-2.6-0.8-4.2-1.1
			c-1.7-0.3-3.7-0.5-6.1-0.6c-2.4-0.1-4.3-0.2-5.7-0.2C54.8,8.1,52.8,8.1,50,8.1z M62,29c4.5,4.5,6.8,10,6.8,16.5
			c0,6.5-2.3,12-6.8,16.5c-4.5,4.5-10,6.8-16.5,6.8c-6.5,0-12-2.3-16.5-6.8c-4.5-4.5-6.8-10-6.8-16.5c0-6.5,2.3-12,6.8-16.5
			c4.5-4.5,10-6.8,16.5-6.8C52,22.1,57.5,24.4,62,29z M56.2,56.2c3-3,4.4-6.5,4.4-10.7c0-4.2-1.5-7.8-4.4-10.7
			c-3-3-6.5-4.4-10.7-4.4c-4.2,0-7.8,1.5-10.7,4.4c-3,3-4.4,6.5-4.4,10.7c0,4.2,1.5,7.8,4.4,10.7c3,3,6.5,4.4,10.7,4.4
			C49.7,60.6,53.2,59.2,56.2,56.2z M73.6,17.4c1.1,1.1,1.6,2.3,1.6,3.8c0,1.5-0.5,2.8-1.6,3.8c-1.1,1.1-2.4,1.6-3.8,1.6
			c-1.5,0-2.8-0.5-3.8-1.6c-1.1-1.1-1.6-2.3-1.6-3.8c0-1.5,0.5-2.8,1.6-3.8c1.1-1.1,2.3-1.6,3.8-1.6C71.3,15.8,72.5,16.3,73.6,17.4z
			"/>
	</g>
</g>
</svg>
