<svg xmlns="http://www.w3.org/2000/svg" viewBox="0 0 215.95 145.25"><defs><style>.cls-1{fill:#a90e1e;}</style></defs><title>Logo</title><g id="Livello_2" data-name="Livello 2"><g id="Livello_1-2" data-name="Livello 1"><path class="cls-1" d="M43.16,60.29a.73.73,0,0,1-.47-.18.72.72,0,0,1-.07-1c.69-.81,1.42-1.61,2.15-2.39a.73.73,0,0,1,1.06,1c-.72.77-1.44,1.55-2.12,2.34A.71.71,0,0,1,43.16,60.29Z"/><path class="cls-1" d="M49.3,54a.74.74,0,0,1-.54-.23.78.78,0,0,1-.19-.52.79.79,0,0,1,.24-.51.73.73,0,1,1,1,1.08A.74.74,0,0,1,49.3,54Zm4.49-3.77a.75.75,0,0,1-.57-.28.76.76,0,0,1-.15-.54.71.71,0,0,1,.27-.48c1.48-1.15,3-2.26,4.59-3.31a.73.73,0,0,1,.4-.13.7.7,0,0,1,.6.33.69.69,0,0,1,.11.54.74.74,0,0,1-.31.46c-1.53,1-3,2.13-4.5,3.25A.7.7,0,0,1,53.79,50.22Z"/><path class="cls-1" d="M58.33,46.93h0a.72.72,0,0,1-.6-.32.69.69,0,0,1-.11-.54.68.68,0,0,1,.31-.46c1.62-1.09,3.31-2.14,5-3.12a.75.75,0,0,1,.36-.1.73.73,0,0,1,.36,1.36c-1.68,1-3.35,2-5,3.06h0A.72.72,0,0,1,58.33,46.93Zm9.94-5.7a.7.7,0,0,1-.65-.41.75.75,0,0,1,0-.55.76.76,0,0,1,.68-.49.74.74,0,0,1,.66.41.73.73,0,0,1-.34,1A.71.71,0,0,1,68.27,41.23Zm5.37-2.38A.72.72,0,0,1,73,38.4a.73.73,0,0,1,.4-.95c1.73-.69,3.51-1.35,5.3-1.94l.11,0h.12a.73.73,0,0,1,.23,1.42h0c-1.76.58-3.51,1.22-5.21,1.91A.86.86,0,0,1,73.64,38.85Z"/><path class="cls-1" d="M78.9,36.92a.72.72,0,0,1-.23-1.41c1-.34,2-.66,3.07-1a.72.72,0,0,1,.9.5.74.74,0,0,1-.49.9c-1,.29-2,.61-3,.94A.91.91,0,0,1,78.9,36.92Z"/><path class="cls-1" d="M138.4,37.38a.67.67,0,0,1-.24,0c-1-.34-2-.68-3-1a.72.72,0,0,1,.43-1.38c1,.31,2,.65,3.06,1a.73.73,0,0,1-.24,1.41Z"/><path class="cls-1" d="M153.34,44.25a.69.69,0,0,1-.37-.1c-1.53-.89-3.11-1.75-4.71-2.55a.72.72,0,1,1,.65-1.29c1.63.81,3.24,1.68,4.79,2.59a.74.74,0,0,1,.34.44.7.7,0,0,1-.08.55A.73.73,0,0,1,153.34,44.25Zm-9.9-4.93a.71.71,0,0,1-.28-.06h0a.72.72,0,0,1,.28-1.39.67.67,0,0,1,.28.06h0a.68.68,0,0,1,.39.39.66.66,0,0,1,0,.55A.73.73,0,0,1,143.44,39.32Z"/><path class="cls-1" d="M170.65,57.92a.76.76,0,0,1-.52-.21v0c-1.21-1.28-2.5-2.55-3.81-3.75h0a.72.72,0,0,1,.49-1.26.75.75,0,0,1,.49.19c1.34,1.23,2.65,2.51,3.88,3.82l.06.07a.72.72,0,0,1-.09,1A.7.7,0,0,1,170.65,57.92Zm-8.17-7.45a.75.75,0,0,1-.45-.16.73.73,0,0,1-.12-1,.74.74,0,0,1,1-.12.73.73,0,0,1,.12,1A.72.72,0,0,1,162.48,50.47Zm-4.36-3.2a.78.78,0,0,1-.41-.12c-1.53-1-3.12-2-4.74-3h0a.65.65,0,0,1-.33-.44.71.71,0,0,1,.07-.55.73.73,0,0,1,.63-.36.78.78,0,0,1,.36.1c1.65,1,3.27,2,4.83,3.05a.69.69,0,0,1,.3.46.71.71,0,0,1-.11.55A.73.73,0,0,1,158.12,47.27Z"/><path class="cls-1" d="M172.78,60.29a.74.74,0,0,1-.55-.26c-.68-.79-1.39-1.57-2.11-2.34a.72.72,0,0,1,0-1,.71.71,0,0,1,1,0c.74.78,1.47,1.58,2.16,2.39a.73.73,0,0,1-.07,1A.74.74,0,0,1,172.78,60.29Z"/><path class="cls-1" d="M158,58.3c.42.42.42.85.21,1.06-.43.42-.85.42-1.06.21a75.74,75.74,0,0,0-98.43,0c-.21.21-.64.21-1.06-.21-.21-.21-.21-.64.21-1.06A77.38,77.38,0,0,1,158,58.3Z"/><path class="cls-1" d="M184.23,58.51a95.8,95.8,0,0,0-48.16-33.37c1.27-2.54-2.33-6.76-6.55-6.76-6.13,0-9.93,2.32-15,2.32-3.59,0-3.38-5.07-.42-5.07,1.27,0,2.11,1.27,1.69,1.9a.76.76,0,0,0,1.27.85c1-1.48-.43-4.23-3-4.23-3.8,0-4.65,4.65-2.54,6.76h-2.74V10.56a13.53,13.53,0,0,1,1.9-6.76V3.59A12.34,12.34,0,0,1,108.19,0h-.43A10.24,10.24,0,0,1,105,3.59V3.8c1.26,1.06,2.32,4,2.32,6.76V20.91h-3c2.12-2.11,1.27-6.76-2.53-6.76-2.54,0-4,2.75-3,4.23a.76.76,0,0,0,1.27-.85c-.42-.63.42-1.9,1.69-1.9,3,0,3.17,5.07-.42,5.07-5.07,0-8.88-2.32-15-2.32-4.23,0-7.82,4.22-6.55,6.76A95.8,95.8,0,0,0,31.72,58.51a.76.76,0,1,0,1.27.85,94.53,94.53,0,0,1,150,0,.76.76,0,0,0,1.27-.85ZM81.15,24.71c-.43-1.26.84-4.85,5.28-4.85,4,0,7,1.05,10.14,1.69A95.63,95.63,0,0,0,81.15,24.71ZM106.71,3.8h0L108,1.9l1.27,1.9A11.8,11.8,0,0,0,108,6.55,11.44,11.44,0,0,0,106.71,3.8ZM134.8,24.71a95.63,95.63,0,0,0-15.42-3.16c3.17-.64,6.13-1.69,10.14-1.69C134,19.86,135.22,23.45,134.8,24.71Z"/><path class="cls-1" d="M216,83.26v.43a10.15,10.15,0,0,0-3.59,2.74h-.21c-1.06-1.26-4-2.32-6.76-2.32H194.61V99.32a3.86,3.86,0,0,1,1.9-.85c0-3.8,5.71-4.22,5.71-8a2.12,2.12,0,1,0-4.23,0c0,.63.21,1.26.85,1.26.84,0,.84,1.48-.21,1.48-1.27,0-2.12-1.26-2.11-2.74a3.59,3.59,0,1,1,7.18,0c0,5.28-5.71,4.86-5.71,8.87,0,.42-.21.63-.84.63a2.38,2.38,0,0,0-2.54,1.9.56.56,0,0,1-.63.64H22a.57.57,0,0,1-.64-.64A2.37,2.37,0,0,0,18.8,100c-.63,0-.85-.21-.85-.63,0-4-5.7-3.59-5.7-8.87a3.43,3.43,0,0,1,3.59-3.59,3.43,3.43,0,0,1,3.59,3.59c0,1.48-.84,2.74-2.11,2.74-1.06,0-1.06-1.48-.21-1.48.63,0,.84-.63.84-1.26a2,2,0,0,0-2.11-2.12,2,2,0,0,0-2.11,2.12c0,3.8,5.7,4.22,5.7,8a3.79,3.79,0,0,1,1.9.85V84.11h-11C7.6,83.9,4.65,85,3.8,86.43H3.59A10.24,10.24,0,0,0,0,83.69v-.43a12.34,12.34,0,0,0,3.59-2.53H3.8a13.64,13.64,0,0,0,6.76,1.9H21.33v-15a3.7,3.7,0,0,1-1.9.85c0,3.8-5.7,4.22-5.7,8a2,2,0,0,0,2.11,2.12A2,2,0,0,0,18,76.51c0-.64-.21-1.27-.84-1.27-.85,0-.85-1.48.21-1.48,1.27,0,2.11,1.27,2.11,2.74a3.44,3.44,0,0,1-3.59,3.6,3.44,3.44,0,0,1-3.59-3.59c0-5.29,5.7-4.86,5.7-8.88,0-.42.22-.63.85-.63a2.37,2.37,0,0,0,2.53-1.9.56.56,0,0,1,.64-.63H67.52a8.57,8.57,0,0,1-2.74-2.75.8.8,0,1,1,1.48-.63c1,1.9,3.59,3.38,6.75,3.38,8.88,0,17.33-12.26,24.51-12.26a6.88,6.88,0,0,1,7.18,7.19,7,7,0,0,1-2.11,5.07h4.64V54.33c0-2.75-1-5.71-2.32-6.76v-.21a10.3,10.3,0,0,0,2.75-3.6h.42a12.57,12.57,0,0,0,2.53,3.6v.21a13.57,13.57,0,0,0-1.9,6.76V64.47h4.65a7,7,0,0,1-2.11-5.07,6.88,6.88,0,0,1,7.18-7.19c7.18,0,15.63,12.26,24.5,12.26,3.17,0,5.71-1.48,6.76-3.38a.8.8,0,1,1,1.48.63,8.5,8.5,0,0,1-2.75,2.75H194a.56.56,0,0,1,.63.63,2.38,2.38,0,0,0,2.54,1.9c.63,0,.84.21.84.63,0,4,5.71,3.59,5.71,8.87a3.6,3.6,0,1,1-7.19,0c0-1.48.85-2.75,2.12-2.75,1.05,0,1.05,1.48.21,1.48-.64,0-.85.63-.85,1.26a2.12,2.12,0,1,0,4.23,0c0-3.81-5.71-4.23-5.71-8a3.77,3.77,0,0,1-1.9-.85v15h10.78a13.64,13.64,0,0,0,6.76-1.9h.21A12.21,12.21,0,0,0,216,83.26ZM3.8,84.74a11.44,11.44,0,0,1,2.75-1.26A11.8,11.8,0,0,1,3.8,82.21L1.9,83.48l1.9,1.26Zm189.33-18.8H22.81V101H193.13ZM79.35,64.47H95.19a5,5,0,0,1-1.47-3.38.74.74,0,1,1,1.47,0,3.83,3.83,0,0,0,3.38,3.38c2.75,0,4.65-2.12,4.65-5.07a5.27,5.27,0,0,0-5.7-5.5C92,53.9,86.53,61.3,79.35,64.47Zm27.25-16.9a11.11,11.11,0,0,1,1.27,2.74,10.76,10.76,0,0,1,1.27-2.74l-1.27-1.9-1.27,1.9Zm10.77,16.9a3.83,3.83,0,0,0,3.38-3.39.74.74,0,1,1,1.48,0,5,5,0,0,1-1.48,3.39H136.6c-7.19-3.17-12.68-10.57-18.17-10.57a5.27,5.27,0,0,0-5.7,5.5C112.73,62.35,114.63,64.47,117.37,64.47Zm96.68,19-1.9-1.27a11.8,11.8,0,0,1-2.75,1.27,11.44,11.44,0,0,1,2.75,1.26Z"/><path class="cls-1" d="M183.12,111.48c.46,3.42-2,5.68-5.44,5.68-2.75,0-5.07-1.69-7.39-3.38a27.18,27.18,0,0,0-4.86-3.17,4.27,4.27,0,0,1,.63,2.32A4.88,4.88,0,0,1,161,118a3.52,3.52,0,0,1-3.59-3.38.74.74,0,1,1,1.48-.08,2.24,2.24,0,0,0,2.26,2,3.43,3.43,0,0,0,3.44-3.59,3.67,3.67,0,0,0-4-3.59c-3.59,0-5.07,1.9-8.87,8.45a48.54,48.54,0,0,1-87,.84c-4-7.39-5.7-9.29-9.29-9.29-2.54,0-4,1.69-4,3.59a3.43,3.43,0,0,0,3.44,3.59,2.24,2.24,0,0,0,2.27-2,.74.74,0,1,1,1.48.08A3.52,3.52,0,0,1,55,118a4.88,4.88,0,0,1-5.07-5.07,4.27,4.27,0,0,1,.64-2.32,27.18,27.18,0,0,0-4.86,3.17c-2.32,1.69-4.65,3.38-7.39,3.38-3.45,0-5.9-2.26-5.44-5.68a4.41,4.41,0,0,1,3.33-3.74,4,4,0,0,1,4.64,3.08c.21,1.05-.84,1.27-1.27.42-.63-1.48-1.26-2.11-2.53-2.11a2.89,2.89,0,0,0-2.75,3.17c0,2.11,1.69,3.38,4,3.38,2.11,0,4-1.27,6.33-3.17,3-2.11,6.13-4.65,10.57-4.65h.21c2.74,0,4.43,1.06,6.33,3.59l-.48-1.93a.67.67,0,0,1,.43-.8h0a.66.66,0,0,1,.85.45,47.17,47.17,0,0,0,87.06,9.68.21.21,0,0,1,.21-.22,56.11,56.11,0,0,0,3.63-9.44.66.66,0,0,1,.85-.47h0a.68.68,0,0,1,.44.8l-.49,1.93c1.9-2.53,3.59-3.59,6.34-3.59h.21c4.44,0,7.61,2.54,10.56,4.65,2.33,1.9,4.23,3.17,6.34,3.17,2.32,0,4-1.27,4-3.38,0-1.48-.84-3.17-2.74-3.17-1.27,0-1.9.63-2.54,2.11-.42.85-1.48.63-1.26-.42a4,4,0,0,1,4.64-3.08A4.41,4.41,0,0,1,183.12,111.48Z"/><path class="cls-1" d="M84.32,108.81h0a.72.72,0,0,1,1,.3,25.91,25.91,0,0,0,45.37-.13.71.71,0,0,1,1-.26l.07,0a.71.71,0,0,1,.23.94,27.37,27.37,0,0,1-47.95.07A.71.71,0,0,1,84.32,108.81Z"/><path class="cls-1" d="M93.19,112.51v-3.8a.85.85,0,1,1,1.69,0v3.8c0,.42-.43.63-.85.63S93.19,112.93,93.19,112.51Z"/><path class="cls-1" d="M97.2,115.68v-7a.85.85,0,1,1,1.69,0v7c0,.42-.42.63-.84.63S97.2,116.1,97.2,115.68Z"/><path class="cls-1" d="M101,117.37v-8.66a.91.91,0,0,1,.85-.85.9.9,0,0,1,.84.85v8.66c0,.42-.42.63-.84.63S101,117.79,101,117.37Z"/><path class="cls-1" d="M105,118v-9.29a.9.9,0,0,1,.84-.85.91.91,0,0,1,.85.85V118c0,.42-.43.63-.85.63S105,118.42,105,118Z"/><path class="cls-1" d="M109,118v-9.29a.85.85,0,1,1,1.69,0V118c0,.42-.42.63-.85.63S109,118.42,109,118Z"/><path class="cls-1" d="M113,117.37v-8.66a.91.91,0,0,1,.85-.85.9.9,0,0,1,.84.85v8.66c0,.42-.42.63-.84.63S113,117.79,113,117.37Z"/><path class="cls-1" d="M117.06,115.68v-7a.9.9,0,0,1,.84-.85.91.91,0,0,1,.85.85v7c0,.42-.43.63-.85.63S117.06,116.1,117.06,115.68Z"/><path class="cls-1" d="M121.07,112.72v-4a.85.85,0,1,1,1.69,0v4c0,.42-.42.63-.84.63S121.07,113.14,121.07,112.72Z"/><path class="cls-1" d="M2.68,132.64a1.18,1.18,0,0,1,.16-.79.59.59,0,0,1-.16-.48c.95-3.82,2.7-10.81,1.59-15,0-.16-.16-.32,0-.63.79-1.12,4.45-4.62,12.24-4,11.46.8,19.73,13.36,31,14.47,6.68.48,10.17-1.43,11-1.91s1.43,0,1.27.8a23.24,23.24,0,0,1-5.09,9.54l8,2.7c.48.16.64.32.32.64-1.59,1.75-7,6.2-16.38,6.2-11,0-20.67-10.65-29.74-14.47a49.22,49.22,0,0,0-1.43,6.36v.48c0,1.43-1.59,2.86-5.41,2.54C5.38,139,2.2,136,2.68,132.64Zm11.61,3.82c0-1.43-2.23-2.86-4.93-1.27-.32.16-.64,0-.64-.48a40.14,40.14,0,0,1,1.12-6.2c-3.82,0-6,1.75-6.21,4.13-.31,2.87,2.39,5.25,6.36,5.57C13,138.37,14.29,137.57,14.29,136.46Zm39.28-1.27c-.32-.16-.16-.48.16-.8,2.07-2.06,3.82-6.36,4.61-8.74-1.75.95-5.09,2.06-10.81,1.59-11.93-1.12-19.88-13.68-31-14.48-6.2-.31-9.54,1.75-10.81,3-.48.31-.16.95-.16,1.59.64,3.34-.32,8.27-1.27,11.76,1.75-1.43,4.29-1.9,7.63-1.59,11.14,1,21.79,15.59,34.67,15.59a24.45,24.45,0,0,0,15-5.09A56,56,0,0,1,53.57,135.19Zm-37.85-5.73a17.09,17.09,0,0,0-3.82-1H11c-.32,1.11-.64,3.18-1,5.09a4.15,4.15,0,0,1,4.62,1A33.9,33.9,0,0,1,15.72,129.46Z"/><path class="cls-1" d="M213.27,132.64c.48,3.34-2.71,6.36-7.32,6.52-3.81.32-5.4-1.11-5.4-2.54v-.48a47.5,47.5,0,0,0-1.44-6.36c-9.06,3.82-18.76,14.47-29.73,14.47-9.39,0-14.8-4.45-16.39-6.2-.31-.32-.15-.48.32-.64l7.95-2.7a23.33,23.33,0,0,1-5.08-9.54c-.16-.8.47-1.27,1.27-.8s4.29,2.39,11,1.91c11.29-1.11,19.56-13.67,31-14.47,7.8-.64,11.45,2.86,12.25,4,.16.31,0,.47,0,.63-1.12,4.14.63,11.13,1.59,15a.59.59,0,0,1-.16.48,1.18,1.18,0,0,1,.16.79ZM206,138.21c4-.32,6.68-2.7,6.36-5.57-.15-2.38-2.38-4.13-6.2-4.13a40.14,40.14,0,0,1,1.12,6.2c0,.48-.32.64-.64.48-2.7-1.59-4.93-.16-4.93,1.27C201.66,137.57,202.93,138.37,206,138.21Zm-51.52-.16a24.42,24.42,0,0,0,14.95,5.09c12.88,0,23.53-14.63,34.66-15.59,3.34-.31,5.89.16,7.64,1.59-1-3.49-1.91-8.42-1.27-11.76,0-.64.31-1.28-.16-1.59-1.28-1.28-4.62-3.34-10.82-3-11.13.8-19.08,13.36-31,14.48-5.72.47-9.06-.64-10.81-1.59.79,2.38,2.54,6.68,4.61,8.74.32.32.48.64.16.8A56,56,0,0,1,154.43,138.05Zm46.91-3.5a4.14,4.14,0,0,1,4.61-1c-.32-1.91-.63-4-.95-5.09h-1a17.14,17.14,0,0,0-3.81,1A36.58,36.58,0,0,1,201.34,134.55Z"/><polygon class="cls-1" points="175.92 129.17 176.4 128.95 176.38 137.12 177.06 136.81 177.06 127.95 176.15 128.37 175.92 129.17"/><path class="cls-1" d="M182.9,125.21a1.36,1.36,0,0,0-1.4.2,4.38,4.38,0,0,0-1.92,3.84c0,1,.23,1.69.68,1.95a1.22,1.22,0,0,0,1.28-.18,4.55,4.55,0,0,0,1.62-2.05c0,2.61-.56,4.14-1.67,4.82a.94.94,0,0,1-.82.17.36.36,0,0,1-.18-.34l0-.33-.59.36v.13a.9.9,0,0,0,.47.8.92.92,0,0,0,.44.1,1.83,1.83,0,0,0,.94-.31c1.39-.84,2.07-2.72,2.07-5.74C183.79,126.58,183.52,125.56,182.9,125.21Zm-.58.58a.44.44,0,0,1,.23.06c.29.16.46.66.46,1.35a4.21,4.21,0,0,1-1.6,3.19c-.24.15-.58.29-.81.16s-.4-.62-.4-1.34a3.74,3.74,0,0,1,1.54-3.22A1.22,1.22,0,0,1,182.32,125.79Z"/><path class="cls-1" d="M189.09,125.81a1.07,1.07,0,0,0-.38-.13,4.7,4.7,0,0,0,.88-2.74c0-1-.34-1.45-.63-1.61s-.71-.22-1.43.24a4.24,4.24,0,0,0-1.88,3.6,1.88,1.88,0,0,0,.61,1.59,1.06,1.06,0,0,0,.32.13,4,4,0,0,0-1,2.49q0,1.1.57,1.41a.94.94,0,0,0,.45.11,2.17,2.17,0,0,0,1.13-.42,3.89,3.89,0,0,0,1.88-3.39A1.4,1.4,0,0,0,189.09,125.81Zm-1.56.25a.89.89,0,0,1-.86.16c-.26-.14-.4-.54-.4-1.13a3.45,3.45,0,0,1,1.48-2.93,1.38,1.38,0,0,1,.65-.25.46.46,0,0,1,.21,0c.24.13.37.54.37,1.15A3.52,3.52,0,0,1,187.53,126.06Zm.22.53a1.63,1.63,0,0,1,.75-.28.48.48,0,0,1,.22,0c.19.1.29.4.29.83a3.08,3.08,0,0,1-1.48,2.7c-.44.28-.79.37-1,.26s-.32-.44-.32-.92A3.31,3.31,0,0,1,187.75,126.59Z"/><path class="cls-1" d="M195.22,122.38a1.4,1.4,0,0,0-1.36,0,3.15,3.15,0,0,0-1.29,1.19v-4.16l3-1.4v-.71L192,119v5.63l.91-.43,0-.06A2.82,2.82,0,0,1,194,123a.83.83,0,0,1,.82,0,1.11,1.11,0,0,1,.37,1,3,3,0,0,1-1.56,2.52,1.09,1.09,0,0,1-.83.12.72.72,0,0,1-.38-.43l-.07-.21-.57.26.05.18a1.23,1.23,0,0,0,.66.82,1.28,1.28,0,0,0,.48.09,1.9,1.9,0,0,0,.8-.19,3.89,3.89,0,0,0,2-3.27A1.58,1.58,0,0,0,195.22,122.38Z"/><polygon class="cls-1" points="20.64 125.83 23.77 127.49 23.77 126.77 21.29 125.45 21.29 122.8 23.09 123.76 23.09 123.03 21.29 122.08 21.29 118.98 23.77 120.29 23.77 119.57 20.64 117.91 20.64 125.83"/><path class="cls-1" d="M27.54,123.79c0-.35.08-.59.22-.66s.57,0,1,.34a2.6,2.6,0,0,1,1.34,2.34v.13l.61.42,0-.35A3.53,3.53,0,0,0,29,122.86c-.67-.46-1.21-.59-1.6-.38s-.51.43-.51,1.18c0,1.52,1,2.57,1.89,3.57s1.55,1.68,1.55,2.7c0,.4-.1.66-.27.76s-.57,0-1-.29A3.2,3.2,0,0,1,27.56,128v-.1l-.66-.45,0,.43A4.12,4.12,0,0,0,28.87,131a2.11,2.11,0,0,0,1.13.43.85.85,0,0,0,.43-.1c.26-.14.57-.47.57-1.3,0-1.27-.9-2.25-1.76-3.2S27.54,125,27.54,123.79Z"/><polygon class="cls-1" points="34.07 127.18 35.7 128.12 35.7 135.31 36.35 135.68 36.35 128.49 37.97 129.42 37.97 128.68 34.07 126.45 34.07 127.18"/><path class="cls-1" d="M88.3,129.18c1.59-3.2,3.21-4.25,5.72-3,2.2,1.09,2.53,2.68,1.6,4.59a9,9,0,0,1-.6,1.06L93.43,131c.21-.35.38-.66.53-.95a1.46,1.46,0,0,0-.73-2.32c-1.43-.71-2.14,0-3.27,2.23s-1.16,3.34.19,4c.92.45,1.72.2,2.31-1l1.59.79a3.18,3.18,0,0,1-4.68,1.77C86.85,134.32,86.71,132.37,88.3,129.18Z"/><path class="cls-1" d="M100.28,132.49c.27-2.24,1.8-3.59,3.82-3.35s3.18,1.91,2.92,4.16l-.78,6.51-1.85-.22.4-3.3-3.05-.37-.39,3.3L99.5,139Zm4.72,2,.17-1.41c.15-1.27-.3-2-1.29-2.12s-1.61.49-1.76,1.76l-.17,1.41Z"/><path class="cls-1" d="M111.65,129.44l5-.94.32,1.75-3.19.59.6,3.23,2.32-.43.33,1.74-2.32.43.61,3.27-1.83.34Z"/><path class="cls-1" d="M122.59,125l-1.06.54-2.06-1.31,1.6-.81Zm-2.19,2.2,4.55-2.3.8,1.58L122.86,128l1.21,2.39,2.1-1.07.8,1.59-2.1,1.06,1,1.92,2.75-1.39.81,1.58L125,136.26Z"/><path class="cls-1" d="M30.62,74.9h4.74c4,0,5.79,2.38,5.79,6a5.83,5.83,0,0,1-1.8,4.66,3.79,3.79,0,0,1,1.91,3.32,4.57,4.57,0,0,1-4.85,4.8H30.62Zm4.74,17.5c2.55,0,4.64-.59,4.64-3.54a3.54,3.54,0,0,0-2.66-3.29c1.48-.54,2.52-1.93,2.52-4.69s-1.31-4.72-4.5-4.72H31.9V92.4Zm-3-15.76h3c2.81,0,4,1.56,4,4.24,0,3-1.44,4.44-3.43,4.44H32.41Zm0,9.17h4a3.13,3.13,0,0,1,3.08,3c0,2.68-1.91,3-4.13,3.06h-3Zm3.22-1.61c1.95,0,2.44-1.31,2.44-3.32,0-1.83-.59-3-2.71-3H33.7V84.2Zm.78,6.62a1.82,1.82,0,0,0,1.79-2,1.78,1.78,0,0,0-1.79-1.93H33.7v3.89Z"/><path class="cls-1" d="M45.81,74.9h8.47v2.95H48.89V84.2h3.92v3H48.89v3.56H54v3h-8.2ZM53,92.4v-.48H47.61v-6h3.91v-.48H47.61V76.64H53v-.48H47.1V92.4Z"/><path class="cls-1" d="M58.84,74.87h3.08V90.71h4.64v3H58.84ZM65.27,92.4v-.48H60.63V76.16h-.5V92.4Z"/><path class="cls-1" d="M70.58,74.87h3.08V90.71H78.3v3H70.58ZM77,92.4v-.48H72.37V76.16h-.51V92.4Z"/><path class="cls-1" d="M82.32,74.9h8.47v2.95H85.4V84.2h3.91v3H85.4v3.56h5.12v3h-8.2ZM89.5,92.4v-.48H84.11v-6H88v-.48H84.11V76.64H89.5v-.48H83.6V92.4Z"/><path class="cls-1" d="M110.78,77.85V74.9h-8.47V93.66h8.2v-3h-5.12V87.15h3.92v-3h-3.92V77.85ZM108,85.43v.48h-3.91v6h5.39v.48h-5.9V76.16h5.9v.48h-5.39v8.79Z"/><path class="cls-1" d="M106.63,69.81l-1.08,3.48h2l2.06-3.48Zm.43,2.62h-.35l.56-1.77h.83Z"/><path class="cls-1" d="M115.34,93.66V74.9h4.74c3.78,0,5.74,2.33,5.74,6.54s-2.12,6.7-5.74,6.7h-1.66v5.52Zm1.79-6.75h3c2.87,0,4.45-2,4.45-5.47s-1.47-5.28-4.45-5.28h-3.46V92.4h.51Zm0-10.27h3c2.82,0,3.94,1.69,3.94,4.8s-1.26,5-3.94,5h-3Zm3,8.55c1.56,0,2.66-1.29,2.66-3.75s-.92-3.59-2.66-3.59h-1.66v7.34Z"/><path class="cls-1" d="M129.57,84.28c0-6.89,1.64-9.65,6.3-9.65s6.3,2.76,6.3,9.65-1.64,9.62-6.3,9.62S129.57,91.14,129.57,84.28Zm1.29,0c0,6.11,1.42,8.39,5,8.39s5-2.28,5-8.39-1.26-8.42-5-8.42S130.86,78.06,130.86,84.28Zm.51,0c0-6.17,1.07-8,4.5-8s4.5,1.79,4.5,8-1.2,8-4.5,8S131.37,90.42,131.37,84.28Zm1.28,0c0,5.33.73,6.67,3.22,6.67s3.22-1.34,3.22-6.67c0-5.17-.57-6.7-3.22-6.7S132.65,79.11,132.65,84.28Z"/><path class="cls-1" d="M152.22,74.63c4.66,0,6.3,2.76,6.3,9.65,0,4.07-.57,6.7-2,8.17L158,95l-2.49,1.66-1.64-2.89a10.36,10.36,0,0,1-1.63.13c-4.67,0-6.3-2.76-6.3-9.62S147.55,74.63,152.22,74.63Zm0,18a5.62,5.62,0,0,0,2.25-.4l1.5,2.65.4-.24-1.5-2.63c1.72-1,2.36-3.43,2.36-7.77,0-6.22-1.26-8.42-5-8.42s-5,2.2-5,8.42S148.49,92.67,152.22,92.67Zm0-16.35c3.43,0,4.5,1.79,4.5,8s-1.07,7.93-4.5,7.93-4.5-1.79-4.5-7.93S148.79,76.32,152.22,76.32Zm0,14.63c2.49,0,3.21-1.34,3.21-6.67,0-5.17-.56-6.7-3.21-6.7S149,79.11,149,84.28C149,89.61,149.73,91,152.22,91Z"/><path class="cls-1" d="M174.06,74.9V87.66c0,3.75-2.25,6.24-5.63,6.24s-5.62-2.49-5.62-6.24V74.9h3.08V87.6c0,2.12.88,3.35,2.54,3.35S171,89.72,171,87.6V74.9Zm-1.79,12.7c0,2.82-1.48,4.59-3.84,4.59s-3.83-1.77-3.83-4.59V76.16h-.51v11.5c0,3.08,1.66,5,4.34,5s4.35-1.93,4.35-5V76.16h-.51Z"/><path class="cls-1" d="M178.89,74.9h8.47v2.95H182V84.2h3.91v3H182v3.56h5.12v3h-8.2Zm7.18,17.5v-.48h-5.39v-6h3.92v-.48h-3.92V76.64h5.39v-.48h-5.9V92.4Z"/><path class="cls-1" d="M91.38,32A2.73,2.73,0,1,1,96.72,31l1.07,6.05-1.46.26-.47-2.62-2.41.43.46,2.61L92.45,38Zm2.47-4.16-.94.16-1.27-1.48,1.41-.25Zm1.77,5.5-.36-2c-.18-1-.69-1.46-1.48-1.32s-1.11.75-.94,1.75l.36,2Z"/><path class="cls-1" d="M111.21,27.44l1.48.09-.46,7.62,2.23.13-.09,1.42-3.71-.23Z"/><path class="cls-1" d="M120.66,31.29A2.73,2.73,0,1,1,126,32.35l-1.2,6-1.46-.29.52-2.6-2.4-.48-.52,2.6-1.46-.29Zm3.46,2.79.4-2c.19-1-.12-1.61-.9-1.77s-1.31.3-1.51,1.3l-.4,2Z"/></g></g></svg>