<svg xmlns="http://www.w3.org/2000/svg" viewBox="0 0 296.11 355.96"><defs><style>.cls-1{fill:#a90e1e;}.cls-2{fill:#fff;}</style></defs><title>Risorsa 2</title><g id="Livello_2" data-name="Livello 2"><g id="Livello_1-2" data-name="Livello 1"><path class="cls-1" d="M296.11,148.06a148.06,148.06,0,1,0-187.23,142.8H107.1L147,356l42-65.1h-1.78A148.11,148.11,0,0,0,296.11,148.06Z"/><path class="cls-2" d="M70.72,111.08a.85.85,0,0,1-.56-.21.87.87,0,0,1-.09-1.22c.83-1,1.7-1.92,2.57-2.86a.88.88,0,0,1,1.23,0,.87.87,0,0,1,0,1.22c-.86.91-1.71,1.85-2.52,2.8A.85.85,0,0,1,70.72,111.08Z"/><path class="cls-2" d="M78,103.57a.88.88,0,0,1-.64-.28.9.9,0,0,1-.22-.63.87.87,0,0,1,.28-.6.89.89,0,0,1,.58-.22.85.85,0,0,1,.64.28.87.87,0,0,1-.05,1.22A.86.86,0,0,1,78,103.57Zm5.36-4.51a.87.87,0,0,1-.86-1,.88.88,0,0,1,.33-.58c1.76-1.37,3.6-2.7,5.47-4a.91.91,0,0,1,.48-.15.87.87,0,0,1,.85,1,.91.91,0,0,1-.37.55c-1.83,1.23-3.64,2.54-5.37,3.88A.83.83,0,0,1,83.4,99.06Z"/><path class="cls-2" d="M88.82,95.14h0a.86.86,0,0,1-.72-.38.86.86,0,0,1,.24-1.2c1.94-1.3,4-2.55,6-3.72a.92.92,0,0,1,.43-.11.87.87,0,0,1,.43,1.62c-2,1.14-4,2.37-5.9,3.65h0A.9.9,0,0,1,88.82,95.14Zm11.87-6.8a.87.87,0,0,1-.82-1.15.85.85,0,0,1,.44-.49.81.81,0,0,1,.37-.09.86.86,0,0,1,.38,1.64A.81.81,0,0,1,100.69,88.34Zm6.4-2.84a.87.87,0,0,1-.81-.54.88.88,0,0,1,.48-1.13c2.07-.83,4.2-1.61,6.33-2.32l.13,0h.14a.87.87,0,0,1,.27,1.69h0c-2.1.69-4.19,1.46-6.22,2.28A.87.87,0,0,1,107.09,85.5Z"/><path class="cls-2" d="M113.36,83.2a.87.87,0,0,1-.27-1.69c1.21-.4,2.44-.78,3.67-1.14a.86.86,0,0,1,.48,1.66c-1.2.36-2.42.73-3.6,1.13A.9.9,0,0,1,113.36,83.2Z"/><path class="cls-2" d="M184.36,83.75a1,1,0,0,1-.29,0c-1.18-.41-2.38-.81-3.58-1.18a.86.86,0,1,1,.51-1.65c1.22.37,2.44.78,3.64,1.2a.87.87,0,0,1,.54,1.1A.88.88,0,0,1,184.36,83.75Z"/><path class="cls-2" d="M202.18,92a.93.93,0,0,1-.43-.12c-1.83-1.07-3.72-2.09-5.62-3a.88.88,0,0,1-.39-1.17.87.87,0,0,1,1.16-.38c1.94,1,3.87,2,5.72,3.09a.89.89,0,0,1,.4.53.85.85,0,0,1-.09.66A.89.89,0,0,1,202.18,92Zm-11.8-5.89A.8.8,0,0,1,190,86h0a.86.86,0,0,1-.46-1.13.87.87,0,0,1,.8-.53.75.75,0,0,1,.33.07h0a.85.85,0,0,1,.46,1.13A.85.85,0,0,1,190.38,86.06Z"/><path class="cls-2" d="M222.84,108.25a.89.89,0,0,1-.62-.25s0,0,0,0c-1.45-1.53-3-3-4.55-4.48h0a.87.87,0,0,1-.06-1.22.88.88,0,0,1,.64-.28.86.86,0,0,1,.59.23c1.6,1.46,3.16,3,4.64,4.56l.06.08a.87.87,0,0,1-.1,1.15A.86.86,0,0,1,222.84,108.25Zm-9.75-8.89a.85.85,0,0,1-.53-.18.87.87,0,0,1,.53-1.55.83.83,0,0,1,.54.19.86.86,0,0,1,.14,1.21A.85.85,0,0,1,213.09,99.36Zm-5.2-3.81a.83.83,0,0,1-.48-.15c-1.83-1.24-3.73-2.45-5.66-3.57h0a.85.85,0,0,1-.4-.53.82.82,0,0,1,.09-.65.85.85,0,0,1,.74-.43.93.93,0,0,1,.44.11c2,1.15,3.9,2.37,5.76,3.64a.85.85,0,0,1,.36.56.81.81,0,0,1-.13.64A.86.86,0,0,1,207.89,95.55Z"/><path class="cls-2" d="M225.39,111.08a.85.85,0,0,1-.66-.3c-.81-.94-1.66-1.89-2.52-2.8a.87.87,0,0,1,0-1.22.88.88,0,0,1,1.23,0c.88.94,1.74,1.9,2.57,2.86a.87.87,0,0,1-.09,1.22A.85.85,0,0,1,225.39,111.08Z"/><path class="cls-2" d="M207.79,108.71c.5.5.5,1,.25,1.26-.5.5-1,.5-1.26.25a90.37,90.37,0,0,0-117.45,0c-.25.25-.76.25-1.26-.25-.25-.25-.25-.76.25-1.26,17.14-14.12,38.06-21.93,59.74-21.93S190.65,94.59,207.79,108.71Z"/><path class="cls-2" d="M239,109a114.22,114.22,0,0,0-57.46-39.82c1.51-3-2.77-8.07-7.82-8.07-7.31,0-11.84,2.77-17.89,2.77-4.29,0-4-6.05-.51-6.05,1.52,0,2.53,1.52,2,2.27-.5,1,.76,2,1.51,1,1.26-1.76-.5-5-3.53-5-4.53,0-5.54,5.55-3,8.07h-3.28V51.75c0-3,1.26-6.81,2.27-8.07v-.25a14.82,14.82,0,0,1-3-4.29h-.51a12.14,12.14,0,0,1-3.27,4.29v.25c1.51,1.26,2.77,4.79,2.77,8.07V64.1h-3.53c2.52-2.52,1.51-8.07-3-8.07-3,0-4.79,3.28-3.53,5,.75,1,2,0,1.51-1-.5-.75.5-2.27,2-2.27,3.52,0,3.78,6.05-.51,6.05-6.05,0-10.58-2.77-17.89-2.77-5,0-9.33,5-7.82,8.07A114.26,114.26,0,0,0,57.07,109a.87.87,0,0,0,.25,1.26.88.88,0,0,0,1.26-.25,112.8,112.8,0,0,1,179,0,.88.88,0,0,0,1.26.25A.87.87,0,0,0,239,109Zm-123-40.33c-.51-1.51,1-5.79,6.3-5.79,4.79,0,8.31,1.26,12.09,2A114.06,114.06,0,0,0,116.05,68.63Zm30.49-24.95h0l1.52-2.27,1.51,2.27A13.09,13.09,0,0,0,148.06,47,13.42,13.42,0,0,0,146.54,43.68Zm33.53,24.95a114.4,114.4,0,0,0-18.4-3.78c3.78-.75,7.31-2,12.09-2C179.06,62.84,180.57,67.12,180.07,68.63Z"/><path class="cls-2" d="M276.89,138.5v.5a12,12,0,0,0-4.28,3.28h-.26c-1.26-1.52-4.78-2.78-8.06-2.78H251.43v18.15a4.61,4.61,0,0,1,2.27-1c0-4.53,6.81-5,6.81-9.57a2.52,2.52,0,1,0-5,0c0,.75.25,1.51,1,1.51,1,0,1,1.76-.26,1.76-1.51,0-2.52-1.51-2.51-3.27a4.28,4.28,0,1,1,8.56,0c0,6.3-6.8,5.79-6.8,10.58,0,.51-.25.76-1,.76a2.84,2.84,0,0,0-3,2.27.66.66,0,0,1-.75.75H45.43a.66.66,0,0,1-.75-.75,2.84,2.84,0,0,0-3-2.27c-.75,0-1-.25-1-.76,0-4.79-6.8-4.28-6.8-10.58a4.29,4.29,0,1,1,8.57,0c0,1.76-1,3.27-2.52,3.27-1.26,0-1.26-1.76-.25-1.76.75,0,1-.76,1-1.51a2.52,2.52,0,1,0-5,0c0,4.53,6.81,5,6.81,9.57a4.61,4.61,0,0,1,2.27,1V139.5H31.57c-3.28-.25-6.81,1-7.81,2.78H23.5A12,12,0,0,0,19.22,139v-.5a14.9,14.9,0,0,0,4.28-3h.26c1.26,1,5,2.27,8.06,2.27H44.68v-17.9a4.52,4.52,0,0,1-2.27,1c0,4.54-6.81,5-6.81,9.58a2.52,2.52,0,1,0,5,0c0-.76-.25-1.51-1-1.51-1,0-1-1.77.25-1.77,1.51,0,2.52,1.52,2.52,3.28a4.29,4.29,0,0,1-8.57,0c0-6.3,6.8-5.8,6.8-10.59,0-.5.26-.75,1-.75a2.84,2.84,0,0,0,3-2.27.67.67,0,0,1,.75-.76H99.79a10.15,10.15,0,0,1-3.28-3.27,1,1,0,0,1,1.77-.76c1.26,2.27,4.28,4,8.06,4,10.59,0,20.67-14.61,29.24-14.61a8.2,8.2,0,0,1,8.57,8.56,8.34,8.34,0,0,1-2.52,6h5.54V104c0-3.28-1.26-6.81-2.77-8.07v-.25a12.3,12.3,0,0,0,3.28-4.29h.5a15.07,15.07,0,0,0,3,4.29v.25c-1,1.26-2.27,5-2.27,8.07v12.09h5.54a8.34,8.34,0,0,1-2.52-6,8.2,8.2,0,0,1,8.57-8.56c8.57,0,18.65,14.61,29.24,14.61,3.78,0,6.8-1.76,8.06-4a1,1,0,0,1,1.77.76,10.15,10.15,0,0,1-3.28,3.27h54.36a.67.67,0,0,1,.75.76,2.84,2.84,0,0,0,3,2.27c.76,0,1,.25,1,.75,0,4.79,6.8,4.29,6.8,10.59a4.29,4.29,0,0,1-8.57,0c0-1.76,1-3.28,2.52-3.28,1.26,0,1.26,1.77.26,1.77-.76,0-1,.75-1,1.51a2.52,2.52,0,1,0,5,0c0-4.54-6.81-5-6.81-9.58a4.52,4.52,0,0,1-2.27-1v17.9h12.86c3,0,6.8-1.26,8.06-2.27h.26A14.9,14.9,0,0,0,276.89,138.5ZM23.76,140.26A13.35,13.35,0,0,1,27,138.75a13.74,13.74,0,0,1-3.27-1.51l-2.27,1.51,2.27,1.51Zm225.91-22.43H46.44v41.84H249.67ZM113.9,116.06h18.91a5.93,5.93,0,0,1-1.77-4,.89.89,0,1,1,1.77,0,4.54,4.54,0,0,0,4,4c3.28,0,5.54-2.52,5.54-6a6.28,6.28,0,0,0-6.8-6.55C129,103.46,122.47,112.28,113.9,116.06ZM146.42,95.9a13.46,13.46,0,0,1,1.51,3.28,13.46,13.46,0,0,1,1.51-3.28l-1.51-2.27-1.51,2.27Zm12.85,20.16a4.56,4.56,0,0,0,4-4,.88.88,0,1,1,1.76,0,5.93,5.93,0,0,1-1.77,4h18.91c-8.57-3.78-15.13-12.6-21.68-12.6a6.28,6.28,0,0,0-6.8,6.55C153.73,113.54,156,116.06,159.27,116.06Zm115.35,22.69-2.26-1.51a14,14,0,0,1-3.28,1.51,13.35,13.35,0,0,1,3.27,1.51Z"/><path class="cls-2" d="M237.72,172.17c.55,4.08-2.37,6.77-6.49,6.77-3.28,0-6-2-8.82-4a33.17,33.17,0,0,0-5.8-3.78,5.05,5.05,0,0,1,.76,2.77,5.82,5.82,0,0,1-6.05,6.05,4.2,4.2,0,0,1-4.29-4,.89.89,0,1,1,1.77-.09,2.67,2.67,0,0,0,2.7,2.36,4.1,4.1,0,0,0,4.1-4.29c0-2.26-1.76-4.28-4.79-4.28-4.28,0-6,2.27-10.58,10.08a57.91,57.91,0,0,1-103.84,1c-4.79-8.82-6.81-11.09-11.09-11.09-3,0-4.79,2-4.79,4.28a4.1,4.1,0,0,0,4.1,4.29,2.69,2.69,0,0,0,2.71-2.36.88.88,0,1,1,1.76.09,4.2,4.2,0,0,1-4.29,4,5.82,5.82,0,0,1-6.05-6.05,5.05,5.05,0,0,1,.76-2.77,33.17,33.17,0,0,0-5.8,3.78c-2.77,2-5.54,4-8.82,4-4.12,0-7-2.69-6.49-6.77a5.25,5.25,0,0,1,4-4.46,4.71,4.71,0,0,1,5.53,3.66c.26,1.26-1,1.52-1.51.51-.75-1.77-1.51-2.52-3-2.52-2.27,0-3.28,2-3.28,3.78,0,2.52,2,4,4.79,4,2.52,0,4.79-1.51,7.56-3.78,3.53-2.52,7.31-5.55,12.6-5.55h.26c3.27,0,5.29,1.27,7.56,4.29l-.58-2.31a.8.8,0,0,1,.52-.95h0a.79.79,0,0,1,1,.53A56.28,56.28,0,0,0,197.71,181a.24.24,0,0,1,.25-.25,66.2,66.2,0,0,0,4.33-11.28.8.8,0,0,1,1-.55h0a.79.79,0,0,1,.52.95l-.58,2.31c2.27-3,4.29-4.29,7.56-4.29h.26c5.29,0,9.07,3,12.6,5.55,2.77,2.27,5,3.78,7.56,3.78,2.77,0,4.79-1.51,4.79-4,0-1.77-1-3.78-3.28-3.78-1.51,0-2.27.75-3,2.52-.51,1-1.77.75-1.51-.51a4.73,4.73,0,0,1,5.54-3.66A5.25,5.25,0,0,1,237.72,172.17Z"/><path class="cls-2" d="M119.83,169h0a.85.85,0,0,1,1.13.35,30.91,30.91,0,0,0,54.14-.15.86.86,0,0,1,1.22-.31l.08.06a.86.86,0,0,1,.28,1.12,32.66,32.66,0,0,1-57.22.08A.85.85,0,0,1,119.83,169Z"/><path class="cls-2" d="M130.41,173.39v-4.54a1,1,0,0,1,2,0v4.54c0,.5-.51.76-1,.76S130.41,173.89,130.41,173.39Z"/><path class="cls-2" d="M135.2,177.17v-8.32a1,1,0,0,1,2,0v8.32c0,.5-.51.76-1,.76S135.2,177.67,135.2,177.17Z"/><path class="cls-2" d="M139.74,179.19V168.85a1,1,0,1,1,2,0v10.34c0,.5-.5.75-1,.75S139.74,179.69,139.74,179.19Z"/><path class="cls-2" d="M144.53,179.94V168.85a1,1,0,1,1,2,0v11.09c0,.51-.5.76-1,.76S144.53,180.45,144.53,179.94Z"/><path class="cls-2" d="M149.32,179.94V168.85a1,1,0,1,1,2,0v11.09c0,.51-.5.76-1,.76S149.32,180.45,149.32,179.94Z"/><path class="cls-2" d="M154.1,179.19V168.85a1,1,0,1,1,2,0v10.34c0,.5-.5.75-1,.75S154.1,179.69,154.1,179.19Z"/><path class="cls-2" d="M158.89,177.17v-8.32a1,1,0,0,1,2,0v8.32c0,.5-.5.76-1,.76S158.89,177.67,158.89,177.17Z"/><path class="cls-2" d="M163.68,173.64v-4.79a1,1,0,1,1,2,0v4.79c0,.51-.51.76-1,.76S163.68,174.15,163.68,173.64Z"/><path class="cls-2" d="M22.42,197.42a1.42,1.42,0,0,1,.19-.95.7.7,0,0,1-.19-.57c1.13-4.56,3.22-12.91,1.89-17.84,0-.19-.19-.38,0-.76,1-1.33,5.32-5.5,14.62-4.74,13.66.95,23.53,15.94,37,17.27,8,.56,12.14-1.71,13.09-2.28s1.71,0,1.52.95c-.76,3-3,8.35-6.07,11.38L94,203.11c.57.19.76.38.38.76-1.9,2.09-8.35,7.4-19.55,7.4-13.09,0-24.67-12.72-35.49-17.27a58.8,58.8,0,0,0-1.7,7.59v.57c0,1.71-1.9,3.42-6.45,3-5.51-.19-9.3-3.8-8.73-7.78ZM36.27,202c0-1.71-2.66-3.42-5.88-1.52-.38.19-.76,0-.76-.57a48.21,48.21,0,0,1,1.33-7.4c-4.56,0-7.22,2.09-7.41,4.94-.37,3.41,2.85,6.26,7.6,6.64C34.75,204.25,36.27,203.3,36.27,202Zm46.87-1.52c-.38-.19-.19-.57.19-.95,2.47-2.46,4.55-7.59,5.5-10.43-2.08,1.13-6.07,2.46-12.9,1.89-14.23-1.32-23.72-16.32-37-17.26-7.41-.38-11.39,2.08-12.91,3.6-.57.38-.19,1.14-.19,1.9.76,4-.38,9.87-1.52,14,2.09-1.71,5.13-2.28,9.11-1.9,13.29,1.14,26,18.6,41.37,18.6a29.15,29.15,0,0,0,17.84-6.07A65.17,65.17,0,0,1,83.14,200.45ZM38,193.62a20,20,0,0,0-4.56-1.14H32.28c-.38,1.33-.76,3.8-1.13,6.07a4.94,4.94,0,0,1,5.5,1.14A42,42,0,0,1,38,193.62Z"/><path class="cls-2" d="M273.69,197.42c.57,4-3.22,7.59-8.72,7.78-4.56.38-6.46-1.33-6.46-3v-.57a57.17,57.17,0,0,0-1.7-7.59c-10.82,4.55-22.4,17.27-35.49,17.27-11.2,0-17.65-5.31-19.54-7.4-.38-.38-.19-.57.37-.76l9.49-3.23c-3-3-5.31-8.35-6.07-11.38-.19-.95.57-1.52,1.52-.95s5.12,2.84,13.09,2.28c13.48-1.33,23.34-16.32,37-17.27,9.29-.76,13.66,3.41,14.61,4.74.19.38,0,.57,0,.76-1.33,4.93.76,13.28,1.89,17.84a.7.7,0,0,1-.19.57,1.42,1.42,0,0,1,.19.95ZM265,204.06c4.74-.38,8-3.23,7.59-6.64-.19-2.85-2.85-4.94-7.4-4.94a49.63,49.63,0,0,1,1.32,7.4c0,.57-.38.76-.76.57-3.22-1.9-5.88-.19-5.88,1.52C259.84,203.3,261.36,204.25,265,204.06Zm-61.49-.19a29.15,29.15,0,0,0,17.84,6.07c15.37,0,28.09-17.46,41.37-18.6,4-.38,7,.19,9.11,1.9-1.14-4.17-2.28-10.06-1.52-14,0-.76.38-1.52-.19-1.9-1.52-1.52-5.5-4-12.9-3.6-13.29.94-22.78,15.94-37,17.26-6.83.57-10.81-.76-12.9-1.89.95,2.84,3,8,5.5,10.43.38.38.57.76.19.95A65.17,65.17,0,0,1,203.48,203.87Zm56-4.18a5,5,0,0,1,5.51-1.14c-.38-2.27-.76-4.74-1.14-6.07h-1.14a20,20,0,0,0-4.56,1.14A42,42,0,0,1,259.46,199.69Z"/><polygon class="cls-2" points="229.13 193.27 229.71 193.01 229.68 202.76 230.5 202.39 230.5 191.82 229.4 192.32 229.13 193.27"/><path class="cls-2" d="M237.46,188.54a1.65,1.65,0,0,0-1.67.25,5.2,5.2,0,0,0-2.29,4.58c0,1.24.27,2,.8,2.32a1.48,1.48,0,0,0,1.54-.21,5.46,5.46,0,0,0,1.93-2.45c0,3.12-.67,4.94-2,5.75a1.14,1.14,0,0,1-1,.21.47.47,0,0,1-.21-.41l0-.4-.71.44v.15a1.09,1.09,0,0,0,.57,1,1.11,1.11,0,0,0,.52.12,2.18,2.18,0,0,0,1.12-.37c1.66-1,2.46-3.25,2.46-6.85C238.51,190.18,238.2,189,237.46,188.54Zm-.69.7a.5.5,0,0,1,.27.07c.35.19.55.79.55,1.61a5,5,0,0,1-1.91,3.81c-.29.17-.69.35-1,.19s-.47-.74-.47-1.6a4.44,4.44,0,0,1,1.84-3.84A1.36,1.36,0,0,1,236.77,189.24Z"/><path class="cls-2" d="M244.84,189.27a1.06,1.06,0,0,0-.45-.16,5.61,5.61,0,0,0,1.06-3.27c0-1.25-.41-1.73-.76-1.92s-.85-.26-1.71.28a5.07,5.07,0,0,0-2.24,4.3,2.2,2.2,0,0,0,.73,1.89,1,1,0,0,0,.38.16,4.74,4.74,0,0,0-1.18,3q0,1.3.69,1.68a1.08,1.08,0,0,0,.54.13,2.63,2.63,0,0,0,1.35-.49,4.67,4.67,0,0,0,2.24-4.05A1.61,1.61,0,0,0,244.84,189.27Zm-1.86.29a1,1,0,0,1-1,.19c-.31-.17-.48-.65-.48-1.35a4.11,4.11,0,0,1,1.77-3.5,1.66,1.66,0,0,1,.78-.29.5.5,0,0,1,.24.06c.28.16.44.64.44,1.37A4.19,4.19,0,0,1,243,189.56Zm.27.64a1.75,1.75,0,0,1,.9-.34.51.51,0,0,1,.25.06c.23.12.35.47.35,1a3.69,3.69,0,0,1-1.77,3.23c-.52.34-.94.44-1.19.31s-.38-.53-.38-1.1A3.91,3.91,0,0,1,243.25,190.2Z"/><path class="cls-2" d="M252.16,185.17a1.65,1.65,0,0,0-1.63,0A3.88,3.88,0,0,0,249,186.6l0-5,3.54-1.67v-.85l-4.3,2v6.71l1.09-.51,0-.07a3.36,3.36,0,0,1,1.37-1.38,1,1,0,0,1,1,0,1.28,1.28,0,0,1,.45,1.13,3.55,3.55,0,0,1-1.86,3,1.27,1.27,0,0,1-1,.14.83.83,0,0,1-.45-.51l-.09-.26-.68.32.06.21a1.48,1.48,0,0,0,.79,1,1.35,1.35,0,0,0,.57.12,2.26,2.26,0,0,0,1-.24,4.62,4.62,0,0,0,2.43-3.9A1.9,1.9,0,0,0,252.16,185.17Z"/><polygon class="cls-2" points="43.84 189.29 47.58 191.27 47.58 190.4 44.62 188.84 44.62 185.67 46.77 186.81 46.77 185.95 44.62 184.81 44.62 181.11 47.58 182.68 47.58 181.82 43.84 179.84 43.84 189.29"/><path class="cls-2" d="M52.08,186.85c0-.42.1-.7.27-.79s.68,0,1.24.41a3.12,3.12,0,0,1,1.6,2.79l0,.16.73.5,0-.42a4.19,4.19,0,0,0-2.07-3.76c-.8-.55-1.45-.7-1.91-.45-.28.14-.61.51-.61,1.4,0,1.82,1.15,3.07,2.26,4.27,1,1,1.85,2,1.85,3.22,0,.47-.12.79-.32.9s-.68,0-1.19-.34a3.75,3.75,0,0,1-1.84-2.88v-.12l-.78-.53,0,.51a4.92,4.92,0,0,0,2.32,3.73A2.48,2.48,0,0,0,55,196a1,1,0,0,0,.51-.12c.31-.16.68-.57.68-1.56,0-1.51-1.07-2.68-2.1-3.81S52.08,188.26,52.08,186.85Z"/><polygon class="cls-2" points="59.87 190.9 61.82 192.01 61.82 200.6 62.59 201.04 62.59 192.46 64.53 193.56 64.53 192.69 59.87 190.02 59.87 190.9"/><path class="cls-2" d="M124.58,193.28c1.89-3.82,3.83-5.07,6.83-3.58,2.63,1.3,3,3.2,1.91,5.48a12,12,0,0,1-.72,1.26l-1.9-.94c.25-.41.46-.78.63-1.13.58-1.13.59-2.05-.86-2.77-1.71-.85-2.56,0-3.91,2.66s-1.39,4,.23,4.74c1.09.54,2.06.25,2.75-1.15l1.9.94a3.79,3.79,0,0,1-5.59,2.11C122.85,199.41,122.69,197.1,124.58,193.28Z"/><path class="cls-2" d="M138.88,197.24c.32-2.68,2.14-4.29,4.55-4s3.8,2.28,3.48,5L146,206l-2.2-.27.47-3.94-3.63-.43-.47,3.94L138,205Zm5.63,2.42.2-1.69c.18-1.51-.36-2.39-1.54-2.53s-1.92.59-2.1,2.1l-.2,1.68Z"/><path class="cls-2" d="M152.44,193.59l6-1.12.39,2.09-3.81.71.72,3.84,2.76-.51.39,2.08-2.76.52.72,3.9-2.18.41Z"/><path class="cls-2" d="M165.5,188.3l-1.27.64-2.46-1.56,1.91-1Zm-2.62,2.62,5.43-2.75,1,1.89-3.46,1.75,1.45,2.86,2.51-1.28,1,1.9-2.51,1.27,1.16,2.28,3.28-1.66,1,1.89-5.26,2.67Z"/><path class="cls-2" d="M55.75,128.51h5.66c4.83,0,6.91,2.85,6.91,7.14,0,2.43-.77,4.47-2.14,5.56a4.52,4.52,0,0,1,2.27,4,5.45,5.45,0,0,1-5.79,5.72H55.75Zm5.66,20.89c3,0,5.53-.71,5.53-4.22a4.22,4.22,0,0,0-3.16-3.94c1.76-.64,3-2.3,3-5.59S65.22,130,61.41,130H57.29V149.4Zm-3.52-18.81h3.52c3.36,0,4.77,1.86,4.77,5.06,0,3.58-1.73,5.3-4.1,5.3H57.89Zm0,10.94h4.77a3.74,3.74,0,0,1,3.68,3.65c0,3.19-2.27,3.61-4.93,3.64H57.89Zm3.84-1.92c2.34,0,2.91-1.57,2.91-4,0-2.18-.7-3.62-3.23-3.62h-2v7.58Zm.93,7.9a2.17,2.17,0,0,0,2.14-2.33,2.13,2.13,0,0,0-2.14-2.31H59.43v4.64Z"/><path class="cls-2" d="M73.88,128.51H84V132H77.56v7.58h4.67v3.52H77.56v4.25h6.11v3.52H73.88Zm8.57,20.89v-.58H76v-7.16H80.7v-.58H76V130.59h6.42V130h-7V149.4Z"/><path class="cls-2" d="M89.43,128.48H93.1v18.9h5.54v3.52H89.43ZM97.1,149.4v-.58H91.57V130H91V149.4Z"/><path class="cls-2" d="M103.43,128.48h3.68v18.9h5.54v3.52h-9.22Zm7.68,20.92v-.58h-5.53V130H105V149.4Z"/><path class="cls-2" d="M117.44,128.51h10.11V132h-6.43v7.58h4.67v3.52h-4.67v4.25h6.11v3.52h-9.79ZM126,149.4v-.58h-6.43v-7.16h4.67v-.58h-4.67V130.59H126V130h-7V149.4Z"/><path class="cls-2" d="M151.41,132v-3.52H141.3V150.9h9.79v-3.52H145v-4.25h4.67v-3.52H145V132Zm-3.3,9.05v.58h-4.67v7.16h6.43v.58h-7V130h7v.57h-6.43v10.49Z"/><path class="cls-2" d="M146.45,122.44l-1.28,4.15h2.37l2.46-4.15Zm.51,3.13h-.42l.68-2.11h1Z"/><path class="cls-2" d="M156.84,150.9V128.51h5.66c4.51,0,6.85,2.79,6.85,7.81s-2.53,8-6.85,8h-2v6.59Zm2.15-8.06h3.51c3.43,0,5.31-2.33,5.31-6.52s-1.76-6.3-5.31-6.3h-4.12V149.4H159Zm0-12.25h3.51c3.36,0,4.7,2,4.7,5.73s-1.5,6-4.7,6H159Zm3.51,10.2c1.86,0,3.17-1.53,3.17-4.47S164.58,132,162.5,132h-2v8.76Z"/><path class="cls-2" d="M173.82,139.71c0-8.22,2-11.52,7.52-11.52s7.52,3.3,7.52,11.52-2,11.48-7.52,11.48S173.82,147.89,173.82,139.71Zm1.54,0c0,7.29,1.7,10,6,10s6-2.72,6-10-1.5-10.05-6-10.05S175.36,132.29,175.36,139.71Zm.61,0c0-7.36,1.28-9.5,5.37-9.5s5.37,2.14,5.37,9.5-1.44,9.5-5.37,9.5S176,147,176,139.71Zm1.53,0c0,6.36.87,8,3.84,8s3.84-1.6,3.84-8c0-6.18-.67-8-3.84-8S177.5,133.53,177.5,139.71Z"/><path class="cls-2" d="M200.85,128.19c5.56,0,7.51,3.3,7.51,11.52,0,4.86-.67,8-2.39,9.75l1.76,3-3,2L202.8,151a13.15,13.15,0,0,1-2,.16c-5.57,0-7.52-3.3-7.52-11.48S195.28,128.19,200.85,128.19Zm0,21.53a6.77,6.77,0,0,0,2.69-.48l1.79,3.16.48-.28L204,149c2-1.21,2.81-4.09,2.81-9.27,0-7.42-1.5-10.05-6-10.05s-6,2.63-6,10.05S196.4,149.72,200.85,149.72Zm0-19.51c4.09,0,5.37,2.14,5.37,9.5s-1.28,9.46-5.37,9.46-5.37-2.14-5.37-9.46S196.76,130.21,200.85,130.21Zm0,17.46c3,0,3.84-1.6,3.84-8,0-6.18-.67-8-3.84-8s-3.84,1.82-3.84,8C197,146.07,197.87,147.67,200.85,147.67Z"/><path class="cls-2" d="M226.91,128.51v15.23c0,4.47-2.68,7.45-6.71,7.45s-6.72-3-6.72-7.45V128.51h3.68v15.16c0,2.53,1.05,4,3,4s3-1.47,3-4V128.51Zm-2.14,15.16c0,3.36-1.76,5.47-4.57,5.47s-4.58-2.11-4.58-5.47V130H215v13.72c0,3.67,2,6,5.18,6s5.18-2.31,5.18-6V130h-.61Z"/><path class="cls-2" d="M232.67,128.51h10.11V132h-6.43v7.58H241v3.52h-4.67v4.25h6.11v3.52h-9.79Zm8.57,20.89v-.58h-6.43v-7.16h4.67v-.58h-4.67V130.59h6.43V130h-7V149.4Z"/><path class="cls-2" d="M128.25,77.31c-.37-2.12.65-3.77,2.56-4.11s3.43.86,3.81,3l1.28,7.21-1.74.31-.55-3.12-2.89.51.56,3.13-1.74.31Zm2.95-5-1.12.2-1.52-1.76,1.69-.3Zm2.11,6.57-.43-2.39c-.21-1.2-.82-1.75-1.76-1.58s-1.33.89-1.12,2.09l.43,2.4Z"/><path class="cls-2" d="M151.92,71.89l1.76.11-.55,9.08,2.66.16-.1,1.69-4.43-.27Z"/><path class="cls-2" d="M163.19,76.48c.43-2.11,2-3.28,3.88-2.9s2.89,2,2.47,4.16l-1.44,7.19-1.73-.35.62-3.11-2.87-.57L163.5,84l-1.74-.34Zm4.13,3.33.47-2.38c.24-1.2-.13-1.93-1.07-2.12s-1.56.35-1.8,1.55l-.47,2.38Z"/></g></g></svg>