<?xml version="1.0" encoding="utf-8"?>
<!-- Generator: Adobe Illustrator 22.1.0, SVG Export Plug-In . SVG Version: 6.00 Build 0)  -->
<svg version="1.1" id="Livello_1" xmlns="http://www.w3.org/2000/svg" xmlns:xlink="http://www.w3.org/1999/xlink" x="0px" y="0px"
	 viewBox="0 0 889 464.2" style="enable-background:new 0 0 889 464.2;" xml:space="preserve">
<style type="text/css">
	.st0{fill:#AB191B;}
</style>
<g>
	<g>
		<path class="st0" d="M856.3,37.1c0,0.6,0.4,1.1,1,1.3c0.7,0.2,1.4-0.2,1.6-1c0.8-3.1,1.9-6.1,3.5-8.9c0.3-0.3,0.4-0.8,0.3-1.2
			c0,0,0-0.1,0-0.1c0,0,0-0.1,0-0.1c0,0-0.1-0.1-0.1-0.1c-0.1-0.1-0.1-0.2-0.2-0.3c0,0,0,0,0,0c-0.1-0.1-0.1-0.1-0.2-0.2
			c-0.5-0.3-1.1-0.2-1.5,0.2c-2.8,1.5-5.7,2.6-8.7,3.4c-0.6,0.2-1,0.7-1,1.3c0,0.1,0,0.2,0,0.3c0.2,0.7,0.9,1.1,1.6,0.9
			c2.1-0.5,4.1-1.2,6.1-2.1c-0.9,2-1.6,4.1-2.1,6.2C856.3,36.9,856.3,37,856.3,37.1z"/>
		<path class="st0" d="M832.6,47.1c-2.4,0-4.6-0.4-6.7-1.3c-0.7-0.3-1.4,0-1.7,0.7c-0.1,0.2-0.1,0.3-0.1,0.5c0,0.5,0.3,1,0.8,1.2
			c2.4,1,4.9,1.5,7.7,1.5c3.5,0,6.4-0.7,8.8-2.2c-1.4,2.4-2.2,5.3-2.2,8.8c0,2.8,0.5,5.3,1.5,7.8c0.3,0.7,1,1,1.7,0.7
			c0.7-0.3,1-1,0.7-1.7c-0.9-2.1-1.3-4.3-1.3-6.7c0-9.2,5.5-13.5,17.3-13.5c1.4,0,2.8,0.1,4.1,0.2c0.7,0.1,1.4-0.4,1.4-1.2
			c0.1-0.7-0.4-1.4-1.2-1.4c-1.4-0.2-2.9-0.2-4.4-0.2c-5.7,0-10.2,1-13.5,3c2-3.3,3-7.8,3-13.5c0-1.8-0.1-3.6-0.3-5.2
			c-0.1-0.7-0.7-1.2-1.5-1.1c-0.7,0.1-1.2,0.7-1.1,1.5c0.2,1.5,0.3,3.2,0.3,4.9C846.1,41.6,841.8,47.1,832.6,47.1z"/>
		<path class="st0" d="M856.2,77c-2.8-2.1-5.4-4.2-7.6-6.4c-0.5-0.5-1.3-0.5-1.9,0c-0.2,0.3-0.4,0.6-0.4,0.9c0,0.3,0.1,0.7,0.4,0.9
			c2.4,2.3,5,4.4,7.9,6.6c8.6,6.7,17.5,13.6,17.5,27.9v0c0,4.9-2.9,10.2-9.3,10.2c-2.7,0-4.9-0.9-6.4-2.6c-1.3-1.4-2-3.3-2-5.3
			c0-2.2,1-4.5,3.1-4.5c0.7,0,1.3-0.6,1.3-1.3c0-0.7-0.6-1.3-1.3-1.3c-3.3,0-5.7,3-5.7,7.1c0,2.6,1,5.2,2.6,7c1.4,1.6,4,3.4,8.4,3.4
			c7.8,0,11.9-6.5,11.9-12.9c0,0,0,0,0,0C874.8,91.4,864.9,83.8,856.2,77z"/>
		<path class="st0" d="M871.2,28.6c-0.7-0.2-1.4,0.1-1.7,0.8c-1.3,3.6-2,7.7-2,12.2c0,4.9,1.1,9.3,2.3,13.9c1.3,4.9,2.6,10,2.6,16
			c0,0,0,0,0,0c0,4.6-1.5,8.6-4.3,11.5c-0.5,0.5-0.5,1.4,0,1.9c0.5,0.5,1.4,0.5,1.9,0c3.3-3.5,5-8.1,5-13.3c0,0,0,0,0,0
			c0-6.4-1.3-11.6-2.6-16.7c-1.1-4.5-2.2-8.7-2.2-13.3c0-4.2,0.6-8,1.8-11.3C872.2,29.6,871.9,28.8,871.2,28.6z"/>
		<path class="st0" d="M814.5,45.4c-5.9,0.4-12.3-3.3-13.2-11.1c-0.3-2.1-0.1-4.2,0.4-6.3c0.2-0.7-0.2-1.4-0.9-1.6
			c-0.7-0.2-1.4,0.2-1.6,0.9c-0.4,1.6-0.6,3.3-0.6,4.9c0,0.8,0,1.6,0.1,2.3c1.1,9.4,8.9,13.9,16,13.4c5.1-0.3,9.4-3.6,11.1-8.5
			c1-2.8,0.9-5.7-0.2-8.2c3.7,1.2,9.7,2.7,16.7,2.6c0.7,0,1.3-0.6,1.3-1.3c0,0,0,0,0,0c0-0.7-0.6-1.3-1.3-1.3
			c-11.1,0.2-19.6-3.9-19.7-4c-0.6-0.3-1.3-0.1-1.7,0.4c-0.4,0.5-0.3,1.3,0.2,1.7c2.5,2.2,3.3,5.7,2.2,9.2
			C822.3,41.7,819.4,45.1,814.5,45.4z"/>
		<path class="st0" d="M2.7,74.5l0-0.4c0-0.1,0-0.2,0-0.3c0-17.4,7.2-24.8,13.2-28c0.6-0.3,0.9-1.1,0.6-1.8
			c-0.3-0.6-1.1-0.9-1.8-0.6C8,47,0,55.1,0,73.8c0,0.1,0,0.2,0,0.3l0,161.1h2.6L2.7,74.5z"/>
		<path class="st0" d="M68.1,27.8c-0.4-0.5-1.1-0.7-1.7-0.4c-0.1,0-8.6,4.2-19.7,4c-0.7,0-1.3,0.6-1.3,1.3c0,0,0,0,0,0
			c0,0.7,0.6,1.3,1.3,1.3c7,0.1,12.9-1.4,16.7-2.6c-1,2.5-1.1,5.4-0.2,8.2c1.7,4.8,6,8.1,11.1,8.5c7.1,0.4,14.9-4,16-13.4
			c0.3-2.5,0.1-4.9-0.5-7.3c-0.2-0.7-0.9-1.1-1.6-0.9c-0.7,0.2-1.1,0.9-0.9,1.6c0.5,2,0.7,4.1,0.4,6.3c-0.9,7.8-7.4,11.5-13.2,11.1
			c-4.9-0.3-7.7-3.7-8.8-6.7c-1.2-3.4-0.3-6.9,2.2-9.2C68.4,29.1,68.5,28.4,68.1,27.8z"/>
		<path class="st0" d="M14,71.5c0,5.3,1.7,9.9,5,13.3c0.5,0.5,1.3,0.5,1.9,0c0.5-0.5,0.5-1.3,0-1.9c-2.8-3-4.3-6.9-4.3-11.5
			c0-6.1,1.3-11.1,2.6-16c1.2-4.6,2.3-9,2.3-13.9c0-4.5-0.7-8.6-2-12.2c-0.3-0.7-1-1-1.7-0.8c-0.7,0.2-1,1-0.8,1.7
			c1.2,3.3,1.8,7.1,1.8,11.3c0,4.6-1.1,8.8-2.2,13.3C15.3,59.9,14,65.1,14,71.5z"/>
		<path class="st0" d="M38.2,31.7c0.2-0.7-0.2-1.4-0.9-1.6c-3-0.8-5.9-1.9-8.7-3.4c-0.4-0.4-1-0.5-1.5-0.2c-0.1,0-0.1,0.1-0.1,0.1
			c-0.1,0.1-0.2,0.1-0.2,0.2c0,0.1-0.1,0.1-0.1,0.2c0,0,0,0,0,0c-0.1,0.2-0.2,0.4-0.2,0.6c0,0.3,0.1,0.5,0.3,0.8
			c1.5,2.8,2.7,5.9,3.5,9c0.2,0.7,0.9,1.1,1.6,1c0.7-0.2,1.1-0.9,1-1.6c-0.5-2.1-1.3-4.2-2.1-6.2c2,0.9,4,1.6,6.1,2.1
			C37.3,32.8,38,32.4,38.2,31.7z"/>
		<path class="st0" d="M24.2,41.8c0,0,0,0.1,0,0.1c0.1,0.7,0.7,1.2,1.4,1.2c1.3-0.1,2.7-0.2,4.1-0.2c11.8,0,17.3,4.3,17.3,13.5
			c0,2.4-0.4,4.6-1.3,6.7c-0.3,0.7,0,1.4,0.7,1.7c0.7,0.3,1.4,0,1.7-0.7c1-2.4,1.5-5,1.5-7.8c0-3.5-0.7-6.4-2.2-8.8
			c2.4,1.4,5.3,2.2,8.8,2.2c2.8,0,5.3-0.5,7.7-1.5c0.7-0.3,1-1,0.7-1.7c-0.3-0.7-1-1-1.7-0.7c-2.1,0.9-4.3,1.3-6.7,1.3
			c-9.2,0-13.5-5.5-13.5-17.3c0-1.7,0.1-3.3,0.3-4.9c0.1-0.7-0.4-1.4-1.1-1.5c-0.7-0.1-1.4,0.4-1.5,1.1c-0.2,1.7-0.3,3.4-0.3,5.2
			c0,5.7,1,10.2,3,13.5c-3.3-2-7.8-3-13.5-3c-1.5,0-3,0.1-4.4,0.2C24.7,40.5,24.2,41.1,24.2,41.8z"/>
		<path class="st0" d="M34.3,87.7c-1.8,0.2-3.7,0.1-5.4-0.2c-0.7-0.1-1.4,0.3-1.6,1c-0.2,0.7,0.3,1.4,1,1.6c2,0.4,4.2,0.5,6.3,0.3
			c9.4-1.1,13.9-8.9,13.4-16c-0.3-5.1-3.6-9.4-8.5-11.1c-2.8-1-5.7-0.9-8.2,0.2c1.3-3.8,2.8-10,2.6-17.1c0-0.7-0.6-1.3-1.3-1.3
			c-0.7,0-1.3,0.6-1.3,1.3c0,0,0,0,0,0c0.3,11.3-3.9,20-4,20.1c-0.1,0.2-0.1,0.4-0.1,0.6c0,0.4,0.2,0.8,0.6,1.1
			c0.5,0.4,1.3,0.3,1.7-0.2c2.2-2.5,5.7-3.3,9.2-2.2c3,1,6.4,3.9,6.7,8.8C45.7,80.3,42.1,86.8,34.3,87.7z"/>
		<path class="st0" d="M44,16.7c0.6,0.3,1.4,0.1,1.8-0.6C48.9,9.9,56.4,2.6,74.1,2.6l136.7,0h603.6l0.4,0
			c17.8-0.1,25.2,7.3,28.4,13.5c0.3,0.6,1.1,0.9,1.8,0.6c0.6-0.3,0.9-1.1,0.6-1.8C842.1,8.1,834-0.1,814.9,0l-604,0H74.5l-0.4,0
			C55-0.1,46.9,8.1,43.4,14.9c-0.1,0.2-0.1,0.4-0.1,0.6C43.3,16,43.5,16.5,44,16.7z"/>
		<path class="st0" d="M817.5,14c-5.2,0-9.7,1.7-13.1,4.8c-0.3,0.3-0.4,0.6-0.4,1c0,0.3,0.1,0.6,0.3,0.9c0.5,0.5,1.3,0.6,1.9,0.1
			c2.9-2.7,6.9-4.1,11.4-4.1c6.1,0,11.1,1.3,16,2.6c4.6,1.2,9,2.3,13.9,2.3c4.6,0,8.7-0.7,12.3-2c0.7-0.3,1-1,0.8-1.7
			c-0.3-0.7-1-1-1.7-0.8c-3.3,1.2-7.2,1.9-11.4,1.9c-4.6,0-8.8-1.1-13.3-2.2C829.1,15.3,823.9,14,817.5,14z"/>
		<path class="st0" d="M866.9,22.1C866.9,22.2,866.9,22.2,866.9,22.1c10.8,10.3,20.2,12.4,20.6,12.5c0.4,0.1,0.8,0,1.1-0.3
			c0.3-0.2,0.5-0.6,0.5-1V14.9c0-0.4-0.2-0.7-0.5-1c-0.3-0.2-0.7-0.4-1.1-0.3c-0.3,0-7,1.1-12.7,7.1c-0.5,0.5-0.5,1.4,0,1.9
			c0.5,0.5,1.4,0.5,1.9-0.1c3.5-3.7,7.5-5.3,9.6-5.9v15.1c-3-1-10.1-4-17.7-11.4c0,0,0,0,0,0c-7.3-7.6-10.3-14.6-11.3-17.6h15.1
			c-0.6,2.2-2.3,6.3-6.1,9.8c-0.5,0.5-0.6,1.3-0.1,1.9c0.5,0.5,1.3,0.6,1.9,0.1c6.1-5.7,7.2-12.5,7.3-12.8c0.1-0.4-0.1-0.8-0.3-1.1
			c-0.2-0.3-0.6-0.5-1-0.5h-18.5c-0.4,0-0.8,0.2-1,0.5c-0.2,0.2-0.3,0.5-0.3,0.8c0,0.1,0,0.2,0,0.3C854.4,2,856.5,11.4,866.9,22.1z"
			/>
		<path class="st0" d="M1.6,34.7C2,34.6,11.4,32.5,22,22.2c0,0,0.1,0,0.1-0.1C32.5,11.4,34.6,2,34.7,1.6c0.1-0.4,0-0.8-0.3-1.1
			c-0.2-0.3-0.6-0.5-1-0.5H14.9c-0.4,0-0.7,0.2-1,0.5c-0.2,0.2-0.3,0.5-0.3,0.9c0,0.1,0,0.1,0,0.2c0,0.3,1.2,7.2,7.3,12.8
			c0.5,0.5,1.4,0.5,1.9-0.1c0.5-0.5,0.5-1.4-0.1-1.9c-3.8-3.5-5.4-7.6-6.1-9.8h15.1c-1,3-4,10-11.3,17.6c0,0,0,0,0,0
			C12.7,27.6,5.7,30.6,2.6,31.6V16.6c2.1,0.6,6.1,2.2,9.6,5.9c0.5,0.5,1.3,0.5,1.9,0.1c0.5-0.5,0.5-1.3,0-1.9
			c-5.6-5.9-12.4-7-12.7-7.1c-0.4-0.1-0.8,0.1-1.1,0.3c-0.3,0.2-0.5,0.6-0.5,1v18.5c0,0.4,0.2,0.8,0.5,1C0.8,34.6,1.2,34.7,1.6,34.7
			z"/>
		<path class="st0" d="M849.4,63.2c-4.8,1.7-8.1,6-8.5,11.1c0,0.3,0,0.7,0,1c0,6.8,4.5,14,13.4,15c2.1,0.3,4.2,0.2,6.3-0.3
			c0.7-0.1,1.2-0.8,1-1.6c-0.1-0.7-0.8-1.2-1.6-1c-1.8,0.4-3.6,0.5-5.4,0.2c-7.8-0.9-11.5-7.4-11.1-13.2c0.3-4.9,3.7-7.7,6.7-8.8
			c3.4-1.2,6.9-0.3,9.2,2.2c0.4,0.5,1.2,0.6,1.7,0.2c0.5-0.4,0.7-1.1,0.4-1.7c0-0.1-4.2-8.8-4-20.1c0,0,0,0,0,0
			c0-0.7-0.6-1.3-1.3-1.3c-0.7,0-1.3,0.6-1.3,1.3c-0.2,7.2,1.3,13.3,2.6,17.1C855.1,62.3,852.3,62.2,849.4,63.2z"/>
		<path class="st0" d="M28.5,17.7c-0.1,0.2-0.1,0.3-0.1,0.5c0,0.5,0.3,1,0.9,1.2c3.6,1.3,7.8,2,12.3,2c4.9,0,9.3-1.1,13.9-2.3
			c4.9-1.3,10-2.6,16-2.6c4.5,0,8.4,1.4,11.4,4.1c0.5,0.5,1.4,0.5,1.9-0.1c0.5-0.5,0.5-1.4-0.1-1.9c-3.4-3.2-8-4.8-13.1-4.8
			c-6.4,0-11.6,1.3-16.7,2.6c-4.5,1.1-8.7,2.2-13.3,2.2c-4.2,0-8.1-0.6-11.4-1.9C29.5,16.7,28.7,17.1,28.5,17.7z"/>
		<path class="st0" d="M107,14.2c-15.6,0-23.2,9.8-30,18.5c-2.1,2.6-4,5.1-6.1,7.3c-0.2,0.3-0.4,0.6-0.4,0.9c0,0.3,0.1,0.7,0.4,0.9
			c0.5,0.5,1.4,0.5,1.9,0c2.2-2.3,4.2-4.8,6.3-7.6c6.7-8.6,13.6-17.5,27.9-17.5c4.9,0,10.2,2.9,10.2,9.3c0,2.7-0.9,4.9-2.6,6.4
			c-1.4,1.3-3.3,2-5.3,2c-2.2,0-4.5-1-4.5-3.1c0-0.7-0.6-1.3-1.3-1.3c-0.7,0-1.3,0.6-1.3,1.3c0,3.3,3,5.7,7.2,5.7c2.6,0,5.2-1,7-2.6
			c1.6-1.4,3.4-4,3.4-8.4C119.9,18.3,113.4,14.2,107,14.2z"/>
		<path class="st0" d="M811.9,32.7c-6.7-8.7-14.4-18.5-30-18.5c-6.4,0-12.9,4.1-12.9,11.9c0,4.4,1.9,7,3.4,8.4
			c1.9,1.7,4.4,2.6,7,2.6c4.1,0,7.2-2.4,7.2-5.7c0-0.7-0.6-1.3-1.3-1.3c-0.7,0-1.3,0.6-1.3,1.3c0,2.1-2.3,3.1-4.5,3.1
			c-2,0-3.9-0.7-5.3-2c-1.7-1.5-2.6-3.7-2.6-6.4c0-6.4,5.3-9.3,10.2-9.3c14.3,0,21.2,8.9,27.9,17.5c2.1,2.7,4.1,5.3,6.3,7.6
			c0.5,0.5,1.3,0.5,1.9,0c0.5-0.5,0.5-1.3,0-1.9C815.9,37.9,814,35.4,811.9,32.7z"/>
		<path class="st0" d="M26.1,119.9c4.4,0,7-1.9,8.4-3.4c1.7-1.9,2.6-4.4,2.6-7c0-4.1-2.4-7.1-5.7-7.1c-0.7,0-1.3,0.6-1.3,1.3
			c0,0.7,0.6,1.3,1.3,1.3c2.1,0,3.1,2.3,3.1,4.5c0,2-0.7,3.9-2,5.3c-1.5,1.7-3.7,2.6-6.4,2.6c-6.4,0-9.3-5.3-9.3-10.2
			c0-14.3,8.9-21.2,17.5-27.9c2.8-2.2,5.5-4.3,7.9-6.6c0.5-0.5,0.5-1.3,0-1.9c-0.5-0.5-1.3-0.5-1.9,0c-2.3,2.2-4.9,4.2-7.6,6.4
			c-8.7,6.7-18.5,14.4-18.5,30C14.2,113.4,18.3,119.9,26.1,119.9z"/>
		<path class="st0" d="M874.3,43.5c-0.6-0.3-1.4-0.1-1.8,0.6c-0.1,0.2-0.1,0.4-0.1,0.6c0,0.5,0.3,0.9,0.7,1.2
			c6.1,3.1,13.2,10.6,13.2,28c0,0.1,0,0.2,0,0.3l0,161.1h2.6l0-161.1C889,55.2,881.1,47,874.3,43.5z"/>
	</g>
	<g>
		<path class="st0" d="M856.3,427.1c0-0.6,0.4-1.1,1-1.3c0.7-0.2,1.4,0.2,1.6,1c0.8,3.1,1.9,6.1,3.5,8.9c0.3,0.3,0.4,0.8,0.3,1.2
			c0,0,0,0.1,0,0.1c0,0,0,0.1,0,0.1c0,0-0.1,0.1-0.1,0.1c-0.1,0.1-0.1,0.2-0.2,0.3c0,0,0,0,0,0c-0.1,0.1-0.1,0.1-0.2,0.2
			c-0.5,0.3-1.1,0.2-1.5-0.2c-2.8-1.5-5.7-2.6-8.7-3.4c-0.6-0.2-1-0.7-1-1.3c0-0.1,0-0.2,0-0.3c0.2-0.7,0.9-1.1,1.6-0.9
			c2.1,0.5,4.1,1.2,6.1,2.1c-0.9-2-1.6-4.1-2.1-6.2C856.3,427.3,856.3,427.2,856.3,427.1z"/>
		<path class="st0" d="M832.6,417c-2.4,0-4.6,0.4-6.7,1.3c-0.7,0.3-1.4,0-1.7-0.7c-0.1-0.2-0.1-0.3-0.1-0.5c0-0.5,0.3-1,0.8-1.2
			c2.4-1,4.9-1.5,7.7-1.5c3.5,0,6.4,0.7,8.8,2.2c-1.4-2.4-2.2-5.3-2.2-8.8c0-2.8,0.5-5.3,1.5-7.8c0.3-0.7,1-1,1.7-0.7
			c0.7,0.3,1,1,0.7,1.7c-0.9,2.1-1.3,4.3-1.3,6.7c0,9.2,5.5,13.5,17.3,13.5c1.4,0,2.8-0.1,4.1-0.2c0.7-0.1,1.4,0.4,1.4,1.2
			c0.1,0.7-0.4,1.4-1.2,1.4c-1.4,0.2-2.9,0.2-4.4,0.2c-5.7,0-10.2-1-13.5-3c2,3.3,3,7.8,3,13.5c0,1.8-0.1,3.6-0.3,5.2
			c-0.1,0.7-0.7,1.2-1.5,1.1c-0.7-0.1-1.2-0.7-1.1-1.5c0.2-1.5,0.3-3.2,0.3-4.9C846.1,422.6,841.8,417,832.6,417z"/>
		<path class="st0" d="M856.2,387.1c-2.8,2.1-5.4,4.2-7.6,6.4c-0.5,0.5-1.3,0.5-1.9,0c-0.2-0.3-0.4-0.6-0.4-0.9
			c0-0.3,0.1-0.7,0.4-0.9c2.4-2.3,5-4.4,7.9-6.6c8.6-6.7,17.5-13.6,17.5-27.9c0,0,0,0,0,0c0-4.9-2.9-10.2-9.3-10.2
			c-2.7,0-4.9,0.9-6.4,2.6c-1.3,1.4-2,3.3-2,5.3c0,2.2,1,4.5,3.1,4.5c0.7,0,1.3,0.6,1.3,1.3c0,0.7-0.6,1.3-1.3,1.3
			c-3.3,0-5.7-3-5.7-7.1c0-2.6,1-5.2,2.6-7c1.4-1.6,4-3.4,8.4-3.4c7.8,0,11.9,6.5,11.9,12.9c0,0,0,0,0,0
			C874.8,372.7,864.9,380.4,856.2,387.1z"/>
		<path class="st0" d="M871.2,435.6c-0.7,0.2-1.4-0.1-1.7-0.8c-1.3-3.6-2-7.7-2-12.2c0-4.9,1.1-9.3,2.3-13.9c1.3-4.9,2.6-10,2.6-16
			c0,0,0,0,0,0c0-4.6-1.5-8.6-4.3-11.5c-0.5-0.5-0.5-1.4,0-1.9c0.5-0.5,1.4-0.5,1.9,0c3.3,3.5,5,8.1,5,13.3c0,0,0,0,0,0
			c0,6.4-1.3,11.6-2.6,16.7c-1.1,4.5-2.2,8.7-2.2,13.3c0,4.2,0.6,8,1.8,11.3C872.2,434.6,871.9,435.3,871.2,435.6z"/>
		<path class="st0" d="M814.5,418.8c-5.9-0.4-12.3,3.3-13.2,11.1c-0.3,2.1-0.1,4.2,0.4,6.3c0.2,0.7-0.2,1.4-0.9,1.6
			c-0.7,0.2-1.4-0.2-1.6-0.9c-0.4-1.6-0.6-3.3-0.6-4.9c0-0.8,0-1.6,0.1-2.3c1.1-9.4,8.9-13.9,16-13.4c5.1,0.3,9.4,3.6,11.1,8.5
			c1,2.8,0.9,5.7-0.2,8.2c3.7-1.2,9.7-2.7,16.7-2.6c0.7,0,1.3,0.6,1.3,1.3c0,0,0,0,0,0c0,0.7-0.6,1.3-1.3,1.3
			c-11.1-0.2-19.6,3.9-19.7,4c-0.6,0.3-1.3,0.1-1.7-0.4c-0.4-0.5-0.3-1.3,0.2-1.7c2.5-2.2,3.3-5.7,2.2-9.2
			C822.3,422.4,819.4,419.1,814.5,418.8z"/>
		<path class="st0" d="M2.7,389.7l0,0.4c0,0.1,0,0.2,0,0.3c0,17.4,7.2,24.8,13.2,28c0.6,0.3,0.9,1.1,0.6,1.8
			c-0.3,0.6-1.1,0.9-1.8,0.6C8,417.1,0,409.1,0,390.3c0-0.1,0-0.2,0-0.3L0,229h2.6L2.7,389.7z"/>
		<path class="st0" d="M68.1,436.3c-0.4,0.5-1.1,0.7-1.7,0.4c-0.1,0-8.6-4.2-19.7-4c-0.7,0-1.3-0.6-1.3-1.3c0,0,0,0,0,0
			c0-0.7,0.6-1.3,1.3-1.3c7-0.1,12.9,1.4,16.7,2.6c-1-2.5-1.1-5.4-0.2-8.2c1.7-4.8,6-8.1,11.1-8.5c7.1-0.4,14.9,4,16,13.4
			c0.3,2.5,0.1,4.9-0.5,7.3c-0.2,0.7-0.9,1.1-1.6,0.9c-0.7-0.2-1.1-0.9-0.9-1.6c0.5-2,0.7-4.1,0.4-6.3c-0.9-7.8-7.4-11.5-13.2-11.1
			c-4.9,0.3-7.7,3.7-8.8,6.7c-1.2,3.4-0.3,6.9,2.2,9.2C68.4,435,68.5,435.8,68.1,436.3z"/>
		<path class="st0" d="M14,392.6c0-5.3,1.7-9.9,5-13.3c0.5-0.5,1.3-0.5,1.9,0c0.5,0.5,0.5,1.3,0,1.9c-2.8,3-4.3,6.9-4.3,11.5
			c0,6.1,1.3,11.1,2.6,16c1.2,4.6,2.3,9,2.3,13.9c0,4.5-0.7,8.6-2,12.2c-0.3,0.7-1,1-1.7,0.8c-0.7-0.2-1-1-0.8-1.7
			c1.2-3.3,1.8-7.1,1.8-11.3c0-4.6-1.1-8.8-2.2-13.3C15.3,404.3,14,399,14,392.6z"/>
		<path class="st0" d="M38.2,432.5c0.2,0.7-0.2,1.4-0.9,1.6c-3,0.8-5.9,1.9-8.7,3.4c-0.4,0.4-1,0.5-1.5,0.2c-0.1,0-0.1-0.1-0.1-0.1
			c-0.1-0.1-0.2-0.1-0.2-0.2c0-0.1-0.1-0.1-0.1-0.2c0,0,0,0,0,0c-0.1-0.2-0.2-0.4-0.2-0.6c0-0.3,0.1-0.5,0.3-0.8
			c1.5-2.8,2.7-5.9,3.5-9c0.2-0.7,0.9-1.1,1.6-1c0.7,0.2,1.1,0.9,1,1.6c-0.5,2.1-1.3,4.2-2.1,6.2c2-0.9,4-1.6,6.1-2.1
			C37.3,431.3,38,431.8,38.2,432.5z"/>
		<path class="st0" d="M24.2,422.4c0,0,0-0.1,0-0.1c0.1-0.7,0.7-1.2,1.4-1.2c1.3,0.1,2.7,0.2,4.1,0.2c11.8,0,17.3-4.3,17.3-13.5
			c0-2.4-0.4-4.6-1.3-6.7c-0.3-0.7,0-1.4,0.7-1.7c0.7-0.3,1.4,0,1.7,0.7c1,2.4,1.5,5,1.5,7.8c0,3.5-0.7,6.4-2.2,8.8
			c2.4-1.4,5.3-2.2,8.8-2.2c2.8,0,5.3,0.5,7.7,1.5c0.7,0.3,1,1,0.7,1.7c-0.3,0.7-1,1-1.7,0.7c-2.1-0.9-4.3-1.3-6.7-1.3
			c-9.2,0-13.5,5.5-13.5,17.3c0,1.7,0.1,3.3,0.3,4.9c0.1,0.7-0.4,1.4-1.1,1.5c-0.7,0.1-1.4-0.4-1.5-1.1c-0.2-1.7-0.3-3.4-0.3-5.2
			c0-5.7,1-10.2,3-13.5c-3.3,2-7.8,3-13.5,3c-1.5,0-3-0.1-4.4-0.2C24.7,423.6,24.2,423.1,24.2,422.4z"/>
		<path class="st0" d="M34.3,376.5c-1.8-0.2-3.7-0.1-5.4,0.2c-0.7,0.1-1.4-0.3-1.6-1c-0.2-0.7,0.3-1.4,1-1.6c2-0.4,4.2-0.5,6.3-0.3
			c9.4,1.1,13.9,8.9,13.4,16c-0.3,5.1-3.6,9.4-8.5,11.1c-2.8,1-5.7,0.9-8.2-0.2c1.3,3.8,2.8,10,2.6,17.1c0,0.7-0.6,1.3-1.3,1.3
			c-0.7,0-1.3-0.6-1.3-1.3c0,0,0,0,0,0c0.3-11.3-3.9-20-4-20.1c-0.1-0.2-0.1-0.4-0.1-0.6c0-0.4,0.2-0.8,0.6-1.1
			c0.5-0.4,1.3-0.3,1.7,0.2c2.2,2.5,5.7,3.3,9.2,2.2c3-1,6.4-3.9,6.7-8.8C45.7,383.9,42.1,377.4,34.3,376.5z"/>
		<path class="st0" d="M44,447.4c0.6-0.3,1.4-0.1,1.8,0.6c3.1,6.2,10.6,13.6,28.4,13.5l136.7,0h603.6l0.4,0
			c17.8,0.1,25.2-7.3,28.4-13.5c0.3-0.6,1.1-0.9,1.8-0.6c0.6,0.3,0.9,1.1,0.6,1.8c-3.5,6.9-11.6,15-30.7,14.9l-604,0H74.5l-0.4,0
			c-19.1,0.1-27.3-8.1-30.7-14.9c-0.1-0.2-0.1-0.4-0.1-0.6C43.3,448.1,43.5,447.7,44,447.4z"/>
		<path class="st0" d="M817.5,450.2c-5.2,0-9.7-1.7-13.1-4.8c-0.3-0.3-0.4-0.6-0.4-1c0-0.3,0.1-0.6,0.3-0.9c0.5-0.5,1.3-0.6,1.9-0.1
			c2.9,2.7,6.9,4.1,11.4,4.1c6.1,0,11.1-1.3,16-2.6c4.6-1.2,9-2.3,13.9-2.3c4.6,0,8.7,0.7,12.3,2c0.7,0.3,1,1,0.8,1.7
			c-0.3,0.7-1,1-1.7,0.8c-3.3-1.2-7.2-1.9-11.4-1.9c-4.6,0-8.8,1.1-13.3,2.2C829.1,448.8,823.9,450.2,817.5,450.2z"/>
		<path class="st0" d="M866.9,442C866.9,442,866.9,442,866.9,442c10.8-10.3,20.2-12.4,20.6-12.5c0.4-0.1,0.8,0,1.1,0.3
			c0.3,0.2,0.5,0.6,0.5,1v18.5c0,0.4-0.2,0.7-0.5,1c-0.3,0.2-0.7,0.4-1.1,0.3c-0.3,0-7-1.1-12.7-7.1c-0.5-0.5-0.5-1.4,0-1.9
			c0.5-0.5,1.4-0.5,1.9,0.1c3.5,3.7,7.5,5.3,9.6,5.9v-15.1c-3,1-10.1,4-17.7,11.4c0,0,0,0,0,0c-7.3,7.6-10.3,14.6-11.3,17.6h15.1
			c-0.6-2.2-2.3-6.3-6.1-9.8c-0.5-0.5-0.6-1.3-0.1-1.9c0.5-0.5,1.3-0.6,1.9-0.1c6.1,5.7,7.2,12.5,7.3,12.8c0.1,0.4-0.1,0.8-0.3,1.1
			c-0.2,0.3-0.6,0.5-1,0.5h-18.5c-0.4,0-0.8-0.2-1-0.5c-0.2-0.2-0.3-0.5-0.3-0.8c0-0.1,0-0.2,0-0.3
			C854.4,462.2,856.5,452.7,866.9,442z"/>
		<path class="st0" d="M1.6,429.5c0.4,0.1,9.8,2.2,20.5,12.5c0,0,0.1,0,0.1,0.1c10.3,10.7,12.5,20.1,12.5,20.5
			c0.1,0.4,0,0.8-0.3,1.1c-0.2,0.3-0.6,0.5-1,0.5H14.9c-0.4,0-0.7-0.2-1-0.5c-0.2-0.2-0.3-0.5-0.3-0.9c0-0.1,0-0.1,0-0.2
			c0-0.3,1.2-7.2,7.3-12.8c0.5-0.5,1.4-0.5,1.9,0.1c0.5,0.5,0.5,1.4-0.1,1.9c-3.8,3.5-5.4,7.6-6.1,9.8h15.1c-1-3-4-10-11.3-17.6
			c0,0,0,0,0,0c-7.6-7.4-14.7-10.4-17.7-11.4v15.1c2.1-0.6,6.1-2.2,9.6-5.9c0.5-0.5,1.3-0.5,1.9-0.1c0.5,0.5,0.5,1.3,0,1.9
			c-5.6,5.9-12.4,7-12.7,7.1c-0.4,0.1-0.8-0.1-1.1-0.3c-0.3-0.2-0.5-0.6-0.5-1v-18.5c0-0.4,0.2-0.8,0.5-1
			C0.8,429.5,1.2,429.4,1.6,429.5z"/>
		<path class="st0" d="M849.4,401c-4.8-1.7-8.1-6-8.5-11.1c0-0.3,0-0.7,0-1c0-6.8,4.5-14,13.4-15c2.1-0.3,4.2-0.2,6.3,0.3
			c0.7,0.1,1.2,0.8,1,1.6c-0.1,0.7-0.8,1.2-1.6,1c-1.8-0.4-3.6-0.5-5.4-0.2c-7.8,0.9-11.5,7.4-11.1,13.2c0.3,4.9,3.7,7.7,6.7,8.8
			c3.4,1.2,6.9,0.3,9.2-2.2c0.4-0.5,1.2-0.6,1.7-0.2c0.5,0.4,0.7,1.1,0.4,1.7c0,0.1-4.2,8.8-4,20.1c0,0,0,0,0,0
			c0,0.7-0.6,1.3-1.3,1.3c-0.7,0-1.3-0.6-1.3-1.3c-0.2-7.2,1.3-13.3,2.6-17.1C855.1,401.8,852.3,401.9,849.4,401z"/>
		<path class="st0" d="M28.5,446.4c-0.1-0.2-0.1-0.3-0.1-0.5c0-0.5,0.3-1,0.9-1.2c3.6-1.3,7.8-2,12.3-2c4.9,0,9.3,1.1,13.9,2.3
			c4.9,1.3,10,2.6,16,2.6c4.5,0,8.4-1.4,11.4-4.1c0.5-0.5,1.4-0.5,1.9,0.1c0.5,0.5,0.5,1.4-0.1,1.9c-3.4,3.2-8,4.8-13.1,4.8
			c-6.4,0-11.6-1.3-16.7-2.6c-4.5-1.1-8.7-2.2-13.3-2.2c-4.2,0-8.1,0.6-11.4,1.9C29.5,447.4,28.7,447.1,28.5,446.4z"/>
		<path class="st0" d="M107,449.9c-15.6,0-23.2-9.8-30-18.5c-2.1-2.6-4-5.1-6.1-7.3c-0.2-0.3-0.4-0.6-0.4-0.9c0-0.3,0.1-0.7,0.4-0.9
			c0.5-0.5,1.4-0.5,1.9,0c2.2,2.3,4.2,4.8,6.3,7.6c6.7,8.6,13.6,17.5,27.9,17.5c4.9,0,10.2-2.9,10.2-9.3c0-2.7-0.9-4.9-2.6-6.4
			c-1.4-1.3-3.3-2-5.3-2c-2.2,0-4.5,1-4.5,3.1c0,0.7-0.6,1.3-1.3,1.3c-0.7,0-1.3-0.6-1.3-1.3c0-3.3,3-5.7,7.2-5.7c2.6,0,5.2,1,7,2.6
			c1.6,1.4,3.4,4,3.4,8.4C119.9,445.8,113.4,449.9,107,449.9z"/>
		<path class="st0" d="M811.9,431.4c-6.7,8.7-14.4,18.5-30,18.5c-6.4,0-12.9-4.1-12.9-11.9c0-4.4,1.9-7,3.4-8.4
			c1.9-1.7,4.4-2.6,7-2.6c4.1,0,7.2,2.4,7.2,5.7c0,0.7-0.6,1.3-1.3,1.3c-0.7,0-1.3-0.6-1.3-1.3c0-2.1-2.3-3.1-4.5-3.1
			c-2,0-3.9,0.7-5.3,2c-1.7,1.5-2.6,3.7-2.6,6.4c0,6.4,5.3,9.3,10.2,9.3c14.3,0,21.2-8.9,27.9-17.5c2.1-2.7,4.1-5.3,6.3-7.6
			c0.5-0.5,1.3-0.5,1.9,0c0.5,0.5,0.5,1.3,0,1.9C815.9,426.3,814,428.8,811.9,431.4z"/>
		<path class="st0" d="M26.1,344.3c4.4,0,7,1.9,8.4,3.4c1.7,1.9,2.6,4.4,2.6,7c0,4.1-2.4,7.1-5.7,7.1c-0.7,0-1.3-0.6-1.3-1.3
			c0-0.7,0.6-1.3,1.3-1.3c2.1,0,3.1-2.3,3.1-4.5c0-2-0.7-3.9-2-5.3c-1.5-1.7-3.7-2.6-6.4-2.6c-6.4,0-9.3,5.3-9.3,10.2
			c0,14.3,8.9,21.2,17.5,27.9c2.8,2.2,5.5,4.3,7.9,6.6c0.5,0.5,0.5,1.3,0,1.9c-0.5,0.5-1.3,0.5-1.9,0c-2.3-2.2-4.9-4.2-7.6-6.4
			c-8.7-6.7-18.5-14.4-18.5-30C14.2,350.8,18.3,344.3,26.1,344.3z"/>
		<path class="st0" d="M874.3,420.6c-0.6,0.3-1.4,0.1-1.8-0.6c-0.1-0.2-0.1-0.4-0.1-0.6c0-0.5,0.3-0.9,0.7-1.2
			c6.1-3.1,13.2-10.6,13.2-28c0-0.1,0-0.2,0-0.3l0-161.1h2.6l0,161.1C889,408.9,881.1,417.1,874.3,420.6z"/>
	</g>
</g>
</svg>
