<?xml version="1.0" encoding="utf-8"?>
<!-- Generator: Adobe Illustrator 22.0.1, SVG Export Plug-In . SVG Version: 6.00 Build 0)  -->
<svg version="1.1" id="Livello_1" xmlns="http://www.w3.org/2000/svg" xmlns:xlink="http://www.w3.org/1999/xlink" x="0px" y="0px"
	 viewBox="0 0 268.3 252.8" style="enable-background:new 0 0 268.3 252.8;" xml:space="preserve">
<style type="text/css">
	.st0{fill:#D68B46;}
	.st1{fill:#EB9D4F;}
	.st2{opacity:0.73;fill:#FFFFFF;enable-background:new    ;}
	.st3{fill:none;stroke:#EB9D4F;stroke-width:2;stroke-miterlimit:10;}
	.st4{fill:#B77843;}
	.st5{fill:#CD8748;}
	.st6{fill:#72932C;}
	.st7{fill:#7CAA2B;}
	.st8{fill:#CF5046;}
	.st9{fill:#EC5F4D;}
	.st10{fill:#DD924D;}
</style>



<style>
@keyframes mulino{
from{
transform:rotate(0deg)
}
to{
transform:rotate(360deg)
}

}





.ruota{
animation: mulino 1s infinite linear;
transform-origin: center center;
animation-play-state: paused;
}

.ruota:hover{

animation-play-state:running;

}



</style>


<g class="ruota">
	<polygon class="st0" points="182.9,242.4 78.1,242.4 105.4,125.5 150.7,125.5 	"/>
	<polygon class="st1" points="191.4,237 86.6,237 114,120.1 159.3,120.1 	"/>
	<circle class="st2" cx="139" cy="172.5" r="19.7"/>
	<line class="st3" x1="139.3" y1="144.9" x2="139.8" y2="200.2"/>
	<line class="st3" x1="166.1" y1="173.3" x2="110.8" y2="173.8"/>
	<polygon class="st4" points="184.8,147.1 78.2,147.1 100.3,104.4 165.1,105.1 	"/>
	<polygon class="st5" points="190.4,143.5 83.7,143.5 105.8,100.9 170.6,101.5 	"/>
	<path class="st6" d="M35,252.8c28.8-11,58-20.9,87.4-29.8c13.9-4.2,27.9-8.2,42.1-11.5c13.3-3.1,27.5-7,41.2-7.6
		c9.2-0.4,18.8,1.3,26.5,6.4c9.2,6,14.9,16.4,17.8,27c0.7,2.6,1.3,5.3,0.8,8s-2.1,5.3-4.7,6.1"/>
	<path class="st7" d="M52.4,252.8c28.8-11,58-20.9,87.4-29.8c13.9-4.2,27.9-8.2,42.1-11.5c13.3-3.1,27.5-7,41.2-7.6
		c9.2-0.4,18.8,1.3,26.5,6.4c9.2,6,14.9,16.4,17.8,27c0.7,2.6,1.3,5.3,0.8,8s-2.1,5.3-4.7,6.1"/>
</g>

	<g >
		<polygon class="st8" points="72.8,206.2 39,163.9 121.2,113.6 131.2,127 	"/>
	<polygon class="st8" points="37.5,65.9 74,26.2 130.2,106.9 118.5,118.7 	"/>
	<polygon class="st8" points="191.5,206 224.5,163 141.4,114.3 131.7,127.9 	"/>
	<polygon class="st8" points="224.3,65 187,26 132.4,107.8 144.2,119.4 	"/>
	
		<polygon class="st9" points="79.1,197.8 45.4,157.5 127.5,109.7 137.5,122.4 		"/>
		<polygon class="st9" points="43.8,64.3 80.3,26.6 136.5,103.3 124.8,114.6 		"/>
		<polygon class="st9" points="197.8,197.5 230.8,156.7 147.7,110.4 138,123.3 		"/>
		<polygon class="st9" points="230.6,63.5 193.4,26.4 138.7,104.2 150.5,115.2 		"/>
</g>
	
	
	
	


<g >
	<circle class="st10" cx="137.3" cy="112.1" r="13.2"/>
	<circle class="st5" cx="137.3" cy="112.1" r="9.7"/>
</g>

</svg>
