<?xml version="1.0" encoding="utf-8"?>
<!-- Generator: Adobe Illustrator 22.1.0, SVG Export Plug-In . SVG Version: 6.00 Build 0)  -->
<svg version="1.1" id="Livello_1" xmlns="http://www.w3.org/2000/svg" xmlns:xlink="http://www.w3.org/1999/xlink" x="0px" y="0px"
	 viewBox="0 0 56.1 49.7" style="enable-background:new 0 0 56.1 49.7;" xml:space="preserve">
<style type="text/css">
	.st0{fill:#86171E;}
	.st1{fill-rule:evenodd;clip-rule:evenodd;fill:#86171E;}
</style>
<g>
	<g>
		<path class="st0" d="M-462.4,24.9c4.7,0,8.7,1.7,12.1,5c3.3,3.3,5,7.4,5,12.1v56.8c0,4.7-1.7,8.7-5,12.1c-3.3,3.3-7.4,5-12.1,5
			h-11.1V80.6h11.8l1.8-13.7h-13.6v-8.8c0-2.2,0.5-3.9,1.4-5c0.9-1.1,2.7-1.7,5.4-1.7l7.2-0.1V39.1c-2.5-0.4-6-0.5-10.5-0.5
			c-5.4,0-9.7,1.6-12.9,4.7c-3.2,3.2-4.8,7.6-4.8,13.4v10.1h-11.8v13.7h11.8v35.2h-31.5c-4.7,0-8.7-1.7-12.1-5
			c-3.3-3.3-5-7.4-5-12.1V41.9c0-4.7,1.7-8.7,5-12.1c3.3-3.3,7.4-5,12.1-5H-462.4z"/>
	</g>
</g>
<g>
	<g>
		<path class="st0" d="M402.6,41.6h24.3c-1.9,2.2-3.5,4.6-4.8,7.3c-1.3,2.7-2.2,5.1-2.5,7.3c4.7,6.4,7,13.5,7,21.4
			c0,6.6-1.6,12.7-4.9,18.3c-3.3,5.6-7.7,10-13.3,13.3c-5.6,3.2-11.7,4.9-18.2,4.9c-5.6,0-10.9-1.2-15.8-3.6
			c-4.9-2.4-9.1-5.7-12.5-9.9c-2,2.4-4.7,6.2-8.2,11.4c-0.5-0.9-1.6-2.7-3.4-5.2c-1.8-2.6-3.4-4.6-4.7-6.2
			c-3.4,4.2-7.6,7.5-12.5,9.9c-4.9,2.4-10.2,3.6-15.9,3.6c-6.6,0-12.6-1.6-18.2-4.9c-5.6-3.2-10-7.7-13.3-13.3
			c-3.3-5.6-4.9-11.7-4.9-18.3c0-7.9,2.3-15,7-21.4c-0.4-2.2-1.2-4.6-2.5-7.3c-1.3-2.7-2.9-5.1-4.8-7.3h23.2
			c6.3-4.2,13.8-7.6,22.6-9.9c8.7-2.4,17.9-3.6,27.5-3.6c9.5,0,18.4,1.2,26.8,3.6C388.8,34,396.2,37.3,402.6,41.6z M338,98.3
			c5.7-5.7,8.6-12.7,8.6-20.7s-2.9-15-8.6-20.7c-5.7-5.7-12.7-8.6-20.7-8.6c-5.3,0-10.2,1.3-14.7,3.9c-4.5,2.6-8,6.2-10.7,10.7
			c-2.6,4.5-3.9,9.4-3.9,14.7c0,5.3,1.3,10.2,3.9,14.7c2.6,4.5,6.2,8.1,10.7,10.7c4.5,2.6,9.4,3.9,14.7,3.9
			C325.3,106.9,332.2,104.1,338,98.3z M334.5,77.4c0,4.9-1.7,9.1-5.2,12.6c-3.5,3.5-7.6,5.2-12.5,5.2c-4.9,0-9.1-1.7-12.6-5.2
			c-3.5-3.5-5.2-7.6-5.2-12.5c0-4.9,1.7-9,5.2-12.5c3.5-3.5,7.6-5.2,12.5-5.2c4.9,0,9,1.7,12.5,5.2
			C332.8,68.4,334.5,72.6,334.5,77.4z M329.1,77.4c0-3.3-1.2-6.2-3.6-8.6c-2.4-2.4-5.3-3.6-8.7-3.6s-6.3,1.2-8.7,3.6
			c-2.4,2.4-3.6,5.3-3.6,8.7c0,3.4,1.2,6.3,3.6,8.7c2.4,2.4,5.3,3.6,8.7,3.6s6.3-1.2,8.7-3.6C327.9,83.7,329.1,80.8,329.1,77.4z
			 M321.9,77.4c0,1.7-0.6,3.1-1.7,4.2c-1.2,1.2-2.6,1.7-4.2,1.7c-1.7,0-3.1-0.6-4.2-1.7c-1.2-1.2-1.7-2.6-1.7-4.2
			c0-1.6,0.6-3,1.7-4.2c1.2-1.2,2.6-1.7,4.2-1.7c1.6,0,3,0.6,4.2,1.7C321.3,74.5,321.9,75.8,321.9,77.4z M389,41.2
			c-10.8-4.7-22.5-7.1-35.3-7.1c-13.5,0-25.7,2.3-36.4,7c5,0,9.7,1,14.2,2.9c4.5,1.9,8.4,4.5,11.6,7.8c3.2,3.3,5.8,7.1,7.8,11.6
			c1.9,4.5,2.9,9.2,2.9,14.2c0-4.9,0.9-9.5,2.8-13.9c1.8-4.4,4.3-8.3,7.5-11.5s6.9-5.8,11.3-7.8C379.6,42.3,384.2,41.3,389,41.2z
			 M410.9,98.3c5.7-5.7,8.6-12.7,8.6-20.7s-2.9-15-8.6-20.7c-5.7-5.7-12.6-8.6-20.7-8.6c-8.1,0-15,2.9-20.7,8.6
			c-5.7,5.7-8.6,12.7-8.6,20.7s2.9,15,8.6,20.7c5.7,5.7,12.7,8.6,20.7,8.6C398.3,106.9,405.2,104.1,410.9,98.3z M402.7,64.9
			c3.5,3.5,5.2,7.6,5.2,12.5c0,4.9-1.7,9-5.2,12.5c-3.5,3.5-7.6,5.2-12.6,5.2c-4.9,0-9-1.7-12.5-5.2c-3.5-3.5-5.2-7.6-5.2-12.5
			c0-4.9,1.7-9,5.2-12.5c3.5-3.5,7.6-5.2,12.5-5.2C395,59.7,399.2,61.4,402.7,64.9z M398.8,86.1c2.4-2.4,3.6-5.3,3.6-8.7
			c0-3.4-1.2-6.3-3.6-8.7c-2.4-2.4-5.3-3.6-8.7-3.6c-3.3,0-6.2,1.2-8.6,3.6c-2.4,2.4-3.6,5.3-3.6,8.7c0,3.4,1.2,6.3,3.6,8.7
			c2.4,2.4,5.3,3.6,8.7,3.6S396.4,88.5,398.8,86.1z M393.4,73.2c1.2,1.1,1.7,2.5,1.7,4.2s-0.6,3.1-1.7,4.2c-1.2,1.2-2.6,1.7-4.2,1.7
			c-1.7,0-3.1-0.6-4.2-1.7c-1.2-1.2-1.7-2.6-1.7-4.2s0.6-3.1,1.7-4.2c1.2-1.1,2.6-1.7,4.2-1.7C390.9,71.5,392.3,72,393.4,73.2z"/>
	</g>
</g>
<g>
	<g>
		<path class="st0" d="M224,70.9c0,9-0.1,15.3-0.3,18.8c-0.4,8.2-2.8,14.6-7.3,19.1c-4.5,4.5-10.9,6.9-19.1,7.3
			c-3.5,0.2-9.7,0.3-18.8,0.3s-15.3-0.1-18.8-0.3c-8.2-0.4-14.6-2.8-19.1-7.3c-4.5-4.5-6.9-10.9-7.3-19.1c-0.2-3.5-0.3-9.7-0.3-18.8
			c0-9,0.1-15.3,0.3-18.8c0.4-8.2,2.8-14.6,7.3-19.1c4.5-4.5,10.9-6.9,19.1-7.3c3.5-0.2,9.7-0.3,18.8-0.3s15.3,0.1,18.8,0.3
			c8.2,0.4,14.6,2.8,19.1,7.3c4.5,4.5,6.9,10.9,7.3,19.1C223.9,55.6,224,61.9,224,70.9z M183,33.6c-2.7,0-4.3,0-4.5,0
			c-0.3,0-1.8,0-4.5,0c-2.7,0-4.8,0-6.2,0c-1.4,0-3.3,0.1-5.7,0.2c-2.4,0.1-4.4,0.3-6.1,0.6c-1.7,0.3-3.1,0.7-4.2,1.1
			c-2,0.8-3.7,1.9-5.2,3.4c-1.5,1.5-2.6,3.2-3.4,5.2c-0.4,1.1-0.8,2.6-1.1,4.2c-0.3,1.7-0.5,3.7-0.6,6.1c-0.1,2.4-0.2,4.3-0.2,5.7
			c0,1.4,0,3.5,0,6.2c0,2.7,0,4.3,0,4.5c0,0.3,0,1.8,0,4.5c0,2.7,0,4.8,0,6.2c0,1.4,0.1,3.3,0.2,5.7c0.1,2.4,0.3,4.4,0.6,6.1
			c0.3,1.7,0.7,3.1,1.1,4.2c0.8,2,1.9,3.7,3.4,5.2c1.5,1.5,3.2,2.6,5.2,3.4c1.1,0.4,2.6,0.8,4.2,1.1c1.7,0.3,3.7,0.5,6.1,0.6
			c2.4,0.1,4.3,0.2,5.7,0.2c1.4,0,3.5,0,6.2,0c2.7,0,4.3,0,4.5,0c0.3,0,1.8,0,4.5,0c2.7,0,4.8,0,6.2,0c1.4,0,3.3-0.1,5.7-0.2
			c2.4-0.1,4.4-0.3,6.1-0.6c1.7-0.3,3.1-0.7,4.2-1.1c2-0.8,3.7-1.9,5.2-3.4c1.5-1.5,2.6-3.2,3.4-5.2c0.4-1.1,0.8-2.6,1.1-4.2
			c0.3-1.7,0.5-3.7,0.6-6.1c0.1-2.4,0.2-4.3,0.2-5.7c0-1.4,0-3.5,0-6.2c0-2.7,0-4.3,0-4.5c0-0.3,0-1.8,0-4.5c0-2.7,0-4.8,0-6.2
			c0-1.4-0.1-3.3-0.2-5.7c-0.1-2.4-0.3-4.4-0.6-6.1c-0.3-1.7-0.7-3.1-1.1-4.2c-0.8-2-1.9-3.7-3.4-5.2c-1.5-1.5-3.2-2.6-5.2-3.4
			c-1.1-0.4-2.6-0.8-4.2-1.1c-1.7-0.3-3.7-0.5-6.1-0.6c-2.4-0.1-4.3-0.2-5.7-0.2C187.8,33.6,185.8,33.6,183,33.6z M195,54.4
			c4.5,4.5,6.8,10,6.8,16.5c0,6.5-2.3,12-6.8,16.5c-4.5,4.5-10,6.8-16.5,6.8c-6.5,0-12-2.3-16.5-6.8c-4.5-4.5-6.8-10-6.8-16.5
			c0-6.5,2.3-12,6.8-16.5c4.5-4.5,10-6.8,16.5-6.8C185,47.6,190.5,49.9,195,54.4z M189.2,81.7c3-3,4.4-6.5,4.4-10.7
			c0-4.2-1.5-7.8-4.4-10.7c-3-3-6.5-4.4-10.7-4.4c-4.2,0-7.8,1.5-10.7,4.4c-3,3-4.4,6.5-4.4,10.7c0,4.2,1.5,7.8,4.4,10.7
			c3,3,6.5,4.4,10.7,4.4C182.7,86.1,186.2,84.6,189.2,81.7z M206.6,42.8c1.1,1.1,1.6,2.3,1.6,3.8c0,1.5-0.5,2.8-1.6,3.8
			c-1.1,1.1-2.4,1.6-3.8,1.6c-1.5,0-2.8-0.5-3.8-1.6c-1.1-1.1-1.6-2.3-1.6-3.8c0-1.5,0.5-2.8,1.6-3.8c1.1-1.1,2.3-1.6,3.8-1.6
			C204.3,41.2,205.5,41.7,206.6,42.8z"/>
	</g>
</g>
<g>
	<path class="st1" d="M25.8,0c5.6,0,10.6,2.4,14,6.2h-28C15.3,2.4,20.3,0,25.8,0L25.8,0z M39.8,31.5c-3.5,3.8-8.5,6.2-14,6.2
		c-5.6,0-10.6-2.4-14-6.2H39.8L39.8,31.5z M39.7,24.7h2.5v-8.1h-2.5V24.7L39.7,24.7z M38.1,15.5V13h-5.3h-1.5h-1v11.7h2.5v-4.6h4.9
		v-2.5h-4.9v-2.2H38.1L38.1,15.5z M41,12.6c0.8,0,1.5,0.7,1.5,1.5c0,0.8-0.7,1.5-1.5,1.5c-0.8,0-1.5-0.7-1.5-1.5
		C39.5,13.3,40.2,12.6,41,12.6L41,12.6z M8.7,41.3H16v1.6l0,0l-0.3,0.3l0,0l-4.1,4.6H16v1.9H8.5V48l0,0l0,0l4.3-4.8H8.7V41.3
		L8.7,41.3z M21.1,41c2.5,0,4.5,2,4.5,4.4c0,2.4-2,4.4-4.5,4.4c-2.5,0-4.5-2-4.5-4.4C16.6,42.9,18.6,41,21.1,41L21.1,41z M21.1,43.1
		c1.3,0,2.3,1,2.3,2.2s-1,2.2-2.3,2.2c-1.3,0-2.3-1-2.3-2.2S19.9,43.1,21.1,43.1L21.1,43.1z M26.6,41.1h2.1l0.1,0.1l3.4,4.4v-4.5
		h2.2v8.4h-2l-0.3-0.3l-3.4-4.4v4.7h-2.2V41.1L26.6,41.1z M35.7,41.1H36h1.9h4.5v2h-4.5v1.3h4v1.8h-4v1.3h4.5v2h-4.5H36h-0.3V41.1
		L35.7,41.1z M8.9,7.5h33.8c4.9,0,8.9,4,8.9,8.9v4.8c0,4.9-4,8.9-8.9,8.9H8.9c-4.9,0-8.9-4-8.9-8.9v-4.8C0,11.6,4,7.5,8.9,7.5
		L8.9,7.5z M21.8,12.6c0.8,0,1.5,0.7,1.5,1.5c0,0.8-0.7,1.5-1.5,1.5c-0.8,0-1.5-0.7-1.5-1.5C20.4,13.3,21,12.6,21.8,12.6L21.8,12.6z
		 M4.8,13h2.5l1.8,7.7l2.1-7.7h0.2h1.9h0.2l2.1,7.7l1.8-7.7H20l-3.2,11.7h-2.1l-2.3-8.4l-2.3,8.4H8L4.8,13L4.8,13z M20.7,24.7H23
		v-8.1h-2.3V24.7L20.7,24.7z M22.8,29.5h19.9c4.5,0,8.2-3.7,8.2-8.2v-4.8c0-4.5-3.7-8.2-8.2-8.2h-8c-4.2,0-7.7,3.5-7.7,7.7v5.5
		c0,0.1,0,0.2,0,0.3l0,0C27,25.6,24.6,28.9,22.8,29.5L22.8,29.5z M52.8,12h0.3v-1.5h0.7v-0.2c-0.6,0-1.2,0-1.7,0v0.2h0.7V12L52.8,12
		z M55.1,11.7l0.6-1.4c0.1,0,0.3,0,0.4,0V12h-0.3v-1.4L55.3,12H55l-0.6-1.4V12h-0.3v-1.7c0.1,0,0.3,0,0.4,0L55.1,11.7L55.1,11.7z"/>
</g>
</svg>
